<svg width="27" height="22" viewBox="0 0 27 22" fill="none" xmlns="http://www.w3.org/2000/svg">
<path d="M16.842 18.1779C16.9974 18.554 17.1669 18.9243 17.3359 19.2901C17.3537 19.3286 17.3715 19.367 17.3892 19.4054C17.5409 19.7334 17.6909 20.058 17.8318 20.3855C17.9963 20.7691 18.2611 21.0657 18.6009 21.2431C18.9402 21.4203 19.3383 21.4704 19.7563 21.3892C20.6412 21.2284 21.4853 20.9285 22.2459 20.5034L22.2459 20.5035L22.2518 20.5C22.7988 20.1743 23.1512 19.7913 23.2828 19.3197C23.4134 18.8518 23.3112 18.3509 23.0704 17.8223L23.0697 17.821C22.9302 17.5195 22.7773 17.2137 22.621 16.9014C22.5751 16.8096 22.5289 16.7173 22.4827 16.6243C23.497 16.064 24.2181 15.4561 24.6789 14.7147C25.1735 13.9188 25.3506 12.9975 25.3069 11.8778L25.3068 11.8769C25.2912 11.5085 25.3692 11.1404 25.5372 10.7976C26.3079 9.30853 26.4637 7.92717 25.9557 6.72408C25.4501 5.52647 24.3103 4.56295 22.6141 3.85274L22.6143 3.85238L22.6011 3.84771C22.3322 3.75236 22.0959 3.60596 21.9094 3.42258C20.524 1.75159 18.6383 1.24284 16.3908 1.50739C15.9337 1.55469 15.4711 1.49135 15.0559 1.32591C12.8722 0.424333 10.8297 0.581626 8.86282 1.79571C8.50345 2.00766 8.09054 2.14802 7.65507 2.20444L7.65499 2.20445C5.88336 2.43453 4.49227 3.15054 3.65444 4.60646C3.5164 4.81057 3.31865 4.98602 3.07576 5.11392L3.07569 5.11378L3.06807 5.11814C2.18523 5.62337 1.55583 6.24474 1.20386 6.98621C0.85117 7.72917 0.78901 8.56756 0.996268 9.48349C1.07244 9.84409 1.05491 10.2146 0.944482 10.5694L0.94448 10.5694L0.944176 10.5704C0.563348 11.8123 0.725153 12.968 1.58777 14.0329L1.58784 14.033C3.19396 16.0137 5.45403 16.4947 8.0293 16.2055L8.02959 16.2055C8.38045 16.1656 8.7563 16.2358 9.16327 16.3117C9.22125 16.3225 9.27986 16.3335 9.33912 16.3442C9.638 16.3986 9.93097 16.4724 10.2326 16.5484C10.3712 16.5833 10.5115 16.6187 10.6552 16.6528C11.1018 16.7591 11.5662 16.8496 12.038 16.8496C12.2001 16.8496 12.3575 16.847 12.5106 16.8444C13.4083 16.8294 14.1581 16.8169 14.841 17.3517L14.8415 17.3521C15.0056 17.4799 15.2223 17.5528 15.4261 17.5941C15.6346 17.6363 15.855 17.6504 16.0472 17.6443C16.3159 17.636 16.4664 17.691 16.5664 17.7663C16.6719 17.8457 16.7554 17.973 16.842 18.1779ZM16.842 18.1779C16.8418 18.1775 16.8417 18.1772 16.8416 18.1769L17.0726 18.0814L16.8423 18.1787C16.8422 18.1784 16.8421 18.1781 16.842 18.1779ZM18.7774 11.2475C18.7773 11.2475 18.7773 11.2475 18.7772 11.2475L18.7878 11.4973M18.7774 11.2475L18.7878 11.4973M18.7774 11.2475C18.7775 11.2475 18.7775 11.2475 18.7776 11.2475L18.7878 11.4973M18.7774 11.2475L18.7878 11.4973M12.1281 5.15719C12.4703 4.49287 12.8364 3.83518 13.2102 3.16378C13.3074 2.98916 13.4051 2.8136 13.5031 2.63676C12.2735 2.2752 11.0524 2.48026 9.96277 3.27878C9.40504 3.69161 8.71163 3.9359 7.98626 3.98037C7.62012 4.01708 7.20466 4.09944 6.83406 4.22826C6.45687 4.35936 6.15646 4.52822 5.98883 4.71959L14.6521 4.2208C14.2974 4.61386 14.235 4.90285 14.2983 5.10749C14.366 5.32595 14.6098 5.56702 15.1445 5.77853C15.3481 5.85869 15.48 6.02571 15.5718 6.16018C15.6067 6.21128 15.6413 6.26647 15.6728 6.31663C15.6835 6.33372 15.6939 6.35023 15.7038 6.3658C15.7452 6.43102 15.7821 6.48622 15.8199 6.53288L16.0055 6.76252L15.7484 6.90772C15.6895 6.94098 15.6259 6.98388 15.554 7.03419C15.5398 7.04408 15.5252 7.05434 15.5103 7.06483C15.4529 7.10524 15.3906 7.14909 15.3298 7.18837C15.2529 7.23805 15.1663 7.28861 15.0758 7.32401C14.9859 7.3592 14.8752 7.38618 14.7562 7.36902M12.1281 5.15719C12.1281 5.15711 12.1282 5.15702 12.1282 5.15694L12.3503 5.27167L12.1281 5.15719ZM12.1281 5.15719C12.0102 5.38544 11.8869 5.55667 11.7294 5.68324C11.574 5.80806 11.3695 5.90213 11.0692 5.9497L11.0684 5.94982C10.8441 5.98608 10.6694 6.13381 10.5435 6.25535C10.4933 6.30379 10.4429 6.35645 10.3965 6.4048C10.3826 6.41935 10.369 6.43351 10.3559 6.44705C10.2964 6.50865 10.2434 6.56143 10.1917 6.60485L9.92334 6.83004L10.2235 7.01058C10.2898 7.05046 10.361 7.10123 10.4407 7.15981C10.4547 7.17006 10.469 7.1806 10.4835 7.19134C10.5487 7.23949 10.6191 7.29149 10.6883 7.33824C10.7731 7.39549 10.8675 7.45297 10.9658 7.49341C11.0637 7.53362 11.1824 7.56415 11.3098 7.54705L11.3104 7.54696C11.6625 7.4987 12.0008 7.40244 12.3445 7.29022C12.4889 7.24307 12.63 7.19463 12.7737 7.14531C12.9599 7.0814 13.1504 7.01601 13.358 6.95002M13.358 6.95002C13.4111 6.96895 13.4715 6.99167 13.5381 7.01669C13.8514 7.13451 14.3008 7.30344 14.7562 7.36902M13.358 6.95002C13.3837 6.94186 13.4096 6.93369 13.4358 6.92552L13.3613 6.68686M13.358 6.95002C13.3314 6.94052 13.3067 6.93198 13.2839 6.92458L13.3613 6.68686M14.7562 7.36902L14.7919 7.12158M14.7562 7.36902C14.7562 7.36902 14.7562 7.36903 14.7562 7.36903L14.7919 7.12158M13.3613 6.68686C13.1225 6.76138 12.899 6.83803 12.6854 6.91128C12.185 7.0829 11.7389 7.23589 11.2765 7.29927M13.3613 6.68686C13.4444 6.7139 13.5417 6.75046 13.6503 6.79123C13.9622 6.90839 14.3669 7.06038 14.7919 7.12158M11.2765 7.29927L15.0525 6.011C15.2292 6.08034 15.3438 6.26288 15.4588 6.44595C15.4667 6.45857 15.4747 6.47119 15.4826 6.48378C15.4892 6.47991 15.4959 6.4761 15.5025 6.47235L15.6254 6.69004L15.431 6.8472C15.4255 6.84037 15.42 6.83349 15.4146 6.82657C15.3979 6.83829 15.3811 6.8501 15.3643 6.86192C15.1624 7.00393 14.9605 7.14589 14.7919 7.12158M11.2765 7.29927C11.0854 7.32493 10.8587 7.15758 10.6337 6.99144C10.611 6.97475 10.5884 6.95807 10.5659 6.9416C10.5486 6.95733 10.531 6.9728 10.5131 6.98782L11.2765 7.29927ZM18.9273 18.2805C18.6943 17.7856 18.4597 17.2874 18.2153 16.7998L14.6522 4.22068C15.3122 3.49021 16.3925 3.12578 17.4942 3.14853C18.596 3.17129 19.6652 3.58029 20.3017 4.3265L20.3017 4.32652L20.3042 4.3294C20.6864 4.76379 21.18 5.11147 21.7428 5.34683L21.7446 5.34757C22.9572 5.84368 23.7451 6.5114 24.1038 7.24966C24.4183 7.89716 24.4193 8.63331 24.035 9.42375C23.128 8.56055 21.9131 7.9848 20.5848 7.78666C20.5194 7.7766 20.4514 7.76351 20.3771 7.74919L20.3645 7.74678C20.2871 7.73187 20.2032 7.71587 20.1192 7.70372C19.9556 7.68003 19.763 7.666 19.5803 7.71683L19.5796 7.71702C19.3809 7.77288 19.2111 7.87691 19.0658 7.97845C18.9978 8.02597 18.9404 8.06868 18.8863 8.10891C18.8115 8.16458 18.743 8.21551 18.6617 8.26787L18.3933 8.44068L18.6254 8.65985C18.6722 8.70404 18.7187 8.75488 18.7699 8.81284C18.7813 8.8257 18.7931 8.8391 18.8051 8.85286C18.845 8.89835 18.8884 8.94773 18.9319 8.99399C19.0448 9.11408 19.1909 9.24952 19.3852 9.31939L19.3853 9.31942C19.6334 9.40854 19.8974 9.44888 20.1396 9.48249C20.1663 9.48619 20.1927 9.48981 20.2188 9.49339C20.4383 9.52347 20.639 9.55098 20.8288 9.60292L20.8296 9.60314C22.5184 10.0591 23.4235 11.1656 23.3785 12.5122L23.3785 12.5124C23.3522 13.3185 23.1326 13.9078 22.7114 14.3485C22.2854 14.794 21.6257 15.1167 20.6609 15.3295C20.5427 15.3511 20.4213 15.3912 20.2763 15.4391C20.2226 15.4568 20.1656 15.4756 20.1043 15.4949L19.818 15.5853L19.9587 15.8505C20.0909 16.0997 20.2199 16.3481 20.3481 16.5951C20.6634 17.2021 20.9742 17.8006 21.3172 18.3815L21.3172 18.3815L21.3189 18.3843C21.4404 18.584 21.4594 18.7308 21.4356 18.8299C21.4134 18.9223 21.3413 19.0268 21.1558 19.1189C20.657 19.3341 20.1324 19.5028 19.591 19.6219C19.5839 19.6107 19.5764 19.5986 19.5685 19.5855C19.5091 19.4872 19.4434 19.3636 19.4007 19.2762C19.2419 18.9486 19.085 18.6153 18.9273 18.2805ZM2.66591 11.8327C2.65592 11.3783 2.77793 11.018 3.00936 10.7579C3.2412 10.4974 3.60767 10.3094 4.13952 10.2479L4.13993 10.2479C4.51489 10.2039 4.90408 10.2198 5.31469 10.2449C5.36931 10.2483 5.4244 10.2518 5.47988 10.2554C5.83433 10.278 6.20464 10.3017 6.57054 10.2875C6.57081 10.2875 6.57107 10.2875 6.57133 10.2875L2.66591 11.8327Z" fill="#1F69FF" stroke="#1F69FF" stroke-width="0.5"/>
<path d="M14.5647 10.2214C14.7561 10.1844 14.9135 10.0206 15.0705 9.8574C15.0828 9.84456 15.0952 9.83172 15.1075 9.81895L14.5647 10.2214ZM14.5647 10.2214L14.5647 10.2214L14.5647 10.2214ZM11.4001 11.2832L11.3996 11.301L11.4016 11.3186C11.4013 11.3164 11.4013 11.3168 11.4011 11.3243C11.4008 11.3315 11.4004 11.3452 11.3992 11.3695C11.3975 11.4074 11.3951 11.4614 11.3975 11.5196C11.4018 11.6279 11.4232 11.8002 11.5434 11.939C11.663 12.0801 11.8141 12.1886 11.9539 12.2788C12.0201 12.3216 12.0791 12.3575 12.1349 12.3916C12.2109 12.4379 12.2812 12.4808 12.3567 12.5327L12.5364 12.6563L12.6832 12.4951C12.7247 12.4495 12.7768 12.4015 12.8388 12.3467C12.8533 12.334 12.8685 12.3207 12.8842 12.307C12.932 12.2651 12.9841 12.2195 13.0316 12.1747C13.0953 12.1147 13.1629 12.0452 13.2174 11.9679C13.2717 11.8907 13.323 11.7919 13.3349 11.6744L13.3349 11.6738C13.3366 11.6566 13.3382 11.6399 13.3399 11.6234C13.3669 11.3472 13.3855 11.1584 13.4157 11.0154C13.4465 10.8697 13.4826 10.809 13.5223 10.7706C13.5672 10.7273 13.6481 10.6818 13.8311 10.6313C14.0032 10.5837 14.2319 10.5398 14.5531 10.4782C14.5724 10.4745 14.5919 10.4708 14.6119 10.4669L14.6122 10.4669C14.8281 10.4251 14.9946 10.2846 15.1159 10.1674C15.1628 10.1221 15.2101 10.0729 15.2534 10.0279C15.2674 10.0133 15.2811 9.99909 15.2941 9.98562C15.3505 9.92757 15.4004 9.87824 15.4491 9.8377L15.6784 9.64701L15.4506 9.45454C15.4022 9.41362 15.3524 9.36371 15.2961 9.30495C15.2836 9.29193 15.2707 9.27827 15.2573 9.2642C15.2135 9.21814 15.1657 9.16776 15.1181 9.1214C14.9981 9.00444 14.8304 8.8611 14.6131 8.82329L14.6131 8.82328L14.6117 8.82304C13.0288 8.55716 11.4478 9.69582 11.4001 11.2832Z" fill="#1F69FF" stroke="#1F69FF" stroke-width="0.5"/>
</svg>
