<svg width="20" height="25" viewBox="0 0 20 25" fill="none" xmlns="http://www.w3.org/2000/svg">
<path d="M7.40771 8.97533L7.42176 8.96191" stroke="#1F69FF" stroke-width="3" stroke-linecap="round" stroke-linejoin="round"/>
<path d="M12.8154 8.97533L12.8295 8.96191" stroke="#1F69FF" stroke-width="3" stroke-linecap="round" stroke-linejoin="round"/>
<path d="M7.40771 13.6169L7.42176 13.6035" stroke="#1F69FF" stroke-width="3" stroke-linecap="round" stroke-linejoin="round"/>
<path d="M12.8154 13.6169L12.8295 13.6035" stroke="#1F69FF" stroke-width="3" stroke-linecap="round" stroke-linejoin="round"/>
<path d="M7.40771 18.2595L7.42176 18.2461" stroke="#1F69FF" stroke-width="3" stroke-linecap="round" stroke-linejoin="round"/>
<path d="M12.8154 18.2595L12.8295 18.2461" stroke="#1F69FF" stroke-width="3" stroke-linecap="round" stroke-linejoin="round"/>
<path d="M2 22.193V5.01734C2 4.63278 2.36317 4.32103 2.81117 4.32103H10.1117V2.69631C10.1117 2.31175 10.4748 2 10.9229 2H17.4122C17.8602 2 18.2234 2.31175 18.2234 2.69631V22.193C18.2234 22.5776 17.8602 22.8893 17.4122 22.8893H2.81117C2.36317 22.8893 2 22.5776 2 22.193Z" stroke="#1F69FF" stroke-width="3" stroke-linecap="round" stroke-linejoin="round"/>
</svg>
