<svg width="27" height="25" viewBox="0 0 27 25" fill="none" xmlns="http://www.w3.org/2000/svg">
<path d="M25.1038 2L23.8203 3.10179" stroke="#1F69FF" stroke-width="3" stroke-linecap="round" stroke-linejoin="round"/>
<path d="M2 2L3.28354 3.10179" stroke="#1F69FF" stroke-width="3" stroke-linecap="round" stroke-linejoin="round"/>
<path d="M25.1038 17.425L23.8203 16.3232" stroke="#1F69FF" stroke-width="3" stroke-linecap="round" stroke-linejoin="round"/>
<path d="M2 17.425L3.28354 16.3232" stroke="#1F69FF" stroke-width="3" stroke-linecap="round" stroke-linejoin="round"/>
<path d="M9.70117 19.6289H17.4024" stroke="#1F69FF" stroke-width="3" stroke-linecap="round" stroke-linejoin="round"/>
<path d="M10.9849 22.9336H16.119" stroke="#1F69FF" stroke-width="3" stroke-linecap="round" stroke-linejoin="round"/>
<path d="M13.5518 3.10156C8.41755 3.10156 5.78907 5.25038 5.85067 8.61052C5.88069 10.2488 6.49224 11.365 7.77597 12.4668C9.0597 13.5686 9.70147 14.1195 9.70128 16.3231H17.4024C17.4027 14.1196 18.0445 13.5686 19.3276 12.4669C20.611 11.3651 21.2231 10.2488 21.253 8.61052C21.3146 5.25038 18.6862 3.10156 13.5518 3.10156Z" stroke="#1F69FF" stroke-width="3" stroke-linecap="round" stroke-linejoin="round"/>
</svg>
