<svg width="67" height="67" viewBox="0 0 67 67" fill="none" xmlns="http://www.w3.org/2000/svg">
<circle cx="33.5" cy="33.5" r="33.5" fill="#275DF5"/>
<path d="M18 44.4208V28.5328C18 26.7778 19.4227 25.3552 21.1776 25.3552H21.972C22.9722 25.3552 23.914 24.8843 24.5141 24.0842L28.0412 19.3813C28.2212 19.1413 28.5038 19 28.8038 19H38.9721C39.2722 19 39.5547 19.1413 39.7347 19.3813L43.2619 24.0842C43.862 24.8843 44.8038 25.3552 45.804 25.3552H46.5984C48.3533 25.3552 49.7759 26.7778 49.7759 28.5328V44.4208C49.7759 46.1757 48.3533 47.5983 46.5984 47.5983H21.1776C19.4227 47.5983 18 46.1757 18 44.4208Z" stroke="white" stroke-width="2.55" stroke-linecap="round" stroke-linejoin="round"/>
<path d="M33.8879 41.2432C37.3977 41.2432 40.2431 38.3978 40.2431 34.888C40.2431 31.3782 37.3977 28.5328 33.8879 28.5328C30.378 28.5328 27.5327 31.3782 27.5327 34.888C27.5327 38.3978 30.378 41.2432 33.8879 41.2432Z" stroke="white" stroke-width="2.55" stroke-linecap="round" stroke-linejoin="round"/>
</svg>
