<svg width="28" height="21" viewBox="0 0 28 21" fill="none" xmlns="http://www.w3.org/2000/svg">
<path d="M4.6974 10.3713L4.69724 10.3712C3.96366 10.0609 3.23305 9.74085 2.50423 9.42159C2.11755 9.25221 1.73138 9.08305 1.34554 8.91568L1.34546 8.91564C1.22512 8.86339 1.08168 8.79432 0.96715 8.68325C0.842748 8.56261 0.763114 8.4036 0.75139 8.19818C0.73948 7.98948 0.804965 7.8216 0.918793 7.68939C1.0231 7.56823 1.16074 7.48622 1.2741 7.42389L1.27508 7.42335C5.27085 5.24965 9.26605 3.07457 13.2607 0.898135C13.4141 0.803928 13.591 0.75297 13.7716 0.750126C13.9526 0.747275 14.1315 0.792862 14.2882 0.882532C18.5215 3.06738 22.756 5.24949 26.9916 7.42887L26.9918 7.42898C27.1071 7.48846 27.2409 7.56785 27.3433 7.68683C27.4536 7.81494 27.5179 7.97744 27.5103 8.17701C27.5028 8.37381 27.4295 8.53394 27.3112 8.65863C27.1992 8.77663 27.0563 8.85315 26.9217 8.90902L26.9209 8.90935C26.4877 9.08742 26.0543 9.26688 25.6205 9.44649C24.7231 9.81807 23.8243 10.1903 22.9225 10.5519C22.8158 10.595 22.783 10.6288 22.7701 10.648C22.7579 10.6662 22.7402 10.7056 22.7423 10.8134L22.7424 10.8167C22.7488 11.8728 22.7488 12.9287 22.7488 13.9835C22.7488 15.0386 22.7488 16.0927 22.7552 17.1466L22.7552 17.1482C22.7552 17.3783 22.7118 17.5869 22.596 17.7703C22.4811 17.9523 22.3107 18.0844 22.1023 18.1912C22.102 18.1913 22.1017 18.1915 22.1015 18.1916L21.9876 17.9691C20.1053 18.9459 18.1263 19.6494 16.007 19.9556L4.6974 10.3713ZM4.6974 10.3713C4.79011 10.4104 4.81466 10.4402 4.82343 10.454C4.83329 10.4696 4.84823 10.5049 4.84837 10.6026M4.6974 10.3713L4.84837 10.6026M4.84067 17.2665C4.83964 17.4363 4.86831 17.6033 4.9536 17.7553C5.03966 17.9087 5.17111 18.025 5.33854 18.1134L4.84067 17.2665ZM4.84067 17.2665C4.84506 16.4511 4.84439 15.6343 4.84372 14.8162C4.84348 14.5183 4.84323 14.2203 4.84323 13.922C4.84323 13.6216 4.84266 13.3204 4.84209 13.0188C4.84056 12.2133 4.83903 11.4052 4.84837 10.6026M4.84067 17.2665L4.84837 10.6026M21.3769 17.0547C21.4088 17.0025 21.4283 16.9441 21.434 16.8838M21.3769 17.0547L6.73167 5.90347C8.9944 4.6765 11.2563 3.4446 13.5173 2.20778C13.685 2.11666 13.8185 2.06577 14.0144 2.16674C17.7512 4.09737 21.4879 6.02585 25.2247 7.95216C25.1581 7.98377 25.102 8.01002 25.0417 8.0349L25.0414 8.03502C25.0041 8.05044 24.9668 8.06586 24.9296 8.08128M21.3769 17.0547C21.3449 17.107 21.3013 17.1518 21.2492 17.1859M21.3769 17.0547L14.7228 12.5897M21.434 16.8838C21.4454 14.9378 21.4454 12.9919 21.434 11.0464M21.434 16.8838L21.1851 16.8604C21.1848 16.8632 21.1845 16.8659 21.1841 16.8687M21.434 16.8838L21.184 16.8824C21.184 16.8778 21.1841 16.8732 21.1841 16.8687M21.434 11.0464C21.4321 10.9512 21.3916 10.8605 21.3211 10.7936M21.434 11.0464L21.184 11.0479C21.184 11.0486 21.184 11.0494 21.184 11.0501M21.434 11.0464L21.184 11.0513C21.184 11.0509 21.184 11.0505 21.184 11.0501M21.3211 10.7936C20.83 10.4135 20.8804 10.0326 21.4691 9.78715C22.6908 9.27929 23.9135 8.77225 25.137 8.26603C25.164 8.25486 25.1909 8.24318 25.2181 8.23095C25.2094 8.226 25.2009 8.22133 25.1919 8.21653C25.16 8.20008 25.1281 8.18362 25.0962 8.16717C25.0961 8.16714 25.0961 8.16711 25.096 8.16707C25.0405 8.13847 24.9851 8.10988 24.9296 8.08128M21.3211 10.7936L21.149 10.9749C21.1511 10.977 21.1532 10.9791 21.1551 10.9812M21.3211 10.7936L21.168 10.9913C21.1637 10.9879 21.1594 10.9846 21.1551 10.9812M24.9296 8.08128C21.2529 6.18589 17.5763 4.28841 13.8996 2.38884C13.8418 2.35909 13.8119 2.35961 13.7913 2.36261C13.7599 2.36719 13.7183 2.38311 13.637 2.42726C11.3758 3.66418 9.11375 4.89618 6.85084 6.12324L3.24417 8.08352C3.25306 8.08744 3.26196 8.09134 3.27088 8.09524C4.12465 8.46772 4.97947 8.83893 5.83453 9.21024C8.22241 10.2472 10.6121 11.2849 12.9859 12.3535M24.9296 8.08128C23.7433 8.57218 22.5578 9.06386 21.3731 9.5563L21.3729 9.55641C21.0571 9.68807 20.787 9.89462 20.7427 10.2045C20.6987 10.5116 20.8963 10.7773 21.1551 10.9812M21.1551 10.9812C21.1739 11.0017 21.1833 11.0263 21.184 11.0501M21.184 11.0501C21.1954 12.9894 21.1954 14.9289 21.1841 16.8687M21.1841 16.8687C21.1812 16.8878 21.1744 16.9067 21.1636 16.9243C21.153 16.9417 21.1386 16.9576 21.1208 16.9708M21.1208 16.9708C18.9605 18.075 16.686 18.7617 14.2321 18.8422M21.1208 16.9708C21.118 16.9729 21.1151 16.9749 21.1122 16.9768L21.2492 17.1859M21.1208 16.9708C21.1256 16.9683 21.1304 16.9659 21.1352 16.9634L21.2492 17.1859M14.2321 18.8422C11.6599 18.926 9.266 18.2861 6.94171 17.234M14.2321 18.8422C14.2321 18.8422 14.2321 18.8422 14.2321 18.8422L14.2403 19.0921M14.2321 18.8422L14.2403 19.0921M6.94171 17.234C6.68716 17.1185 6.55234 17.0092 6.4759 16.8903C6.40033 16.7727 6.35986 16.6114 6.36727 16.3449L6.36727 16.3448C6.4011 15.1085 6.39482 13.8715 6.38856 12.6372C6.38609 12.15 6.38362 11.6631 6.38362 11.1769V11.112M6.94171 17.234L6.83862 17.4617M6.94171 17.234C6.94177 17.234 6.94183 17.234 6.9419 17.2341L6.83862 17.4617M6.38362 11.112C6.39186 11.1154 6.39998 11.1188 6.40806 11.1223M6.38362 11.112V10.8438C6.42668 10.8599 6.46739 10.8756 6.50751 10.8929M6.38362 11.112C6.34371 11.0956 6.30125 11.0798 6.24998 11.0608C6.21451 11.0476 6.1758 11.0333 6.13362 11.0169V11.1769C6.13362 11.6659 6.1361 12.1544 6.13858 12.6425C6.14483 13.8753 6.15107 15.106 6.11737 16.3379C6.10111 16.9224 6.28848 17.2122 6.83862 17.4617M6.40806 11.1223C6.9374 11.353 7.46679 11.5833 7.99612 11.8137C9.7258 12.5664 11.4548 13.3188 13.1795 14.0809M6.40806 11.1223C6.40825 11.1224 6.40844 11.1224 6.40863 11.1225L6.50751 10.8929M6.40806 11.1223C6.40792 11.1222 6.40778 11.1221 6.40763 11.1221L6.50751 10.8929M13.1795 14.0809C13.3611 14.1717 13.5617 14.2205 13.7656 14.224C13.9704 14.2274 14.1736 14.1849 14.3591 14.0995M13.1795 14.0809C13.1814 14.0817 13.1833 14.0825 13.1852 14.0834L13.2863 13.8547M13.1795 14.0809C13.1775 14.0798 13.1754 14.0788 13.1733 14.0777L13.2863 13.8547M14.3591 14.0995C14.8778 13.8772 15.4002 13.6622 15.9246 13.4465L15.9652 13.4298C16.5031 13.2085 17.043 12.9861 17.5794 12.7551M14.3591 14.0995C14.3602 14.099 14.3614 14.0985 14.3626 14.0979L14.2574 13.8711M14.3591 14.0995C14.358 14.1 14.3569 14.1004 14.3559 14.1009L14.2574 13.8711M17.5794 12.7551C17.8282 12.6517 18.0355 12.4694 18.1652 12.2358L18.1704 12.2265L18.1747 12.2167C18.2109 12.1362 18.2163 12.0515 18.2134 11.9862C18.2103 11.9171 18.1967 11.8471 18.1771 11.7827C18.1574 11.7184 18.1295 11.6525 18.093 11.5932C18.0586 11.5374 18.0055 11.4693 17.9278 11.4232L17.9279 11.4231L17.9208 11.4192C17.7996 11.3526 17.666 11.3108 17.5282 11.296C17.3905 11.2812 17.2509 11.2937 17.1181 11.3328L17.1097 11.3352L17.1014 11.3383C17.0689 11.3504 17.0364 11.3625 17.0038 11.3746C16.2038 11.672 15.3842 11.9767 14.6104 12.3664M17.5794 12.7551C17.5799 12.7549 17.5804 12.7547 17.5809 12.7545L17.4821 12.5249M17.5794 12.7551C17.5788 12.7554 17.5782 12.7556 17.5776 12.7559L17.4821 12.5249M14.6104 12.3664C14.3162 12.5144 14.0617 12.574 13.813 12.5693C13.5617 12.5645 13.298 12.4937 12.9859 12.3535M14.6104 12.3664C14.6104 12.3664 14.6104 12.3664 14.6104 12.3664L14.7228 12.5897M14.6104 12.3664L14.7228 12.5897M12.9859 12.3535C12.9859 12.3535 12.9858 12.3535 12.9858 12.3535L12.8833 12.5815L12.9859 12.3535ZM14.7228 12.5897C15.4839 12.2064 16.2918 11.906 17.0954 11.6073C17.1265 11.5957 17.1575 11.5842 17.1886 11.5726C17.2898 11.5428 17.3963 11.5333 17.5016 11.5446C17.6068 11.5559 17.7085 11.5878 17.8003 11.6383C17.9167 11.7072 18.0023 11.9904 17.9466 12.1144C17.8448 12.2978 17.681 12.4426 17.4821 12.5249M17.4821 12.5249C16.9337 12.761 16.3812 12.9883 15.8287 13.2156C15.3038 13.4316 14.7789 13.6476 14.2574 13.8711M14.2574 13.8711C14.1055 13.9416 13.9385 13.9768 13.7698 13.974C13.6011 13.9711 13.4355 13.9303 13.2863 13.8547M13.2863 13.8547C11.559 13.0915 9.82727 12.3379 8.09561 11.5843C7.56619 11.3539 7.03678 11.1236 6.50751 10.8929M6.83862 17.4617C9.18719 18.5248 11.6196 19.1774 14.2403 19.0921M14.2403 19.0921C16.7428 19.01 19.058 18.3081 21.2492 17.1859" fill="#1F69FF" stroke="#1F69FF" stroke-width="0.5"/>
<path d="M20.4193 15.6463L20.4193 15.6454C20.4306 15.1101 20.4287 14.5709 20.4268 14.0345C20.4261 13.832 20.4254 13.6299 20.4254 13.4286C20.4254 13.2042 20.4243 12.9809 20.4232 12.7584C20.4209 12.2675 20.4185 11.78 20.4278 11.2907C20.4418 11.0986 20.4012 10.9068 20.3108 10.7361C20.2202 10.5651 20.0835 10.4225 19.9166 10.3224C18.7356 9.54012 17.5605 8.75086 16.3847 7.96118C15.8854 7.62581 15.386 7.29037 14.8859 6.95536C14.8075 6.90088 14.725 6.85207 14.6393 6.80928L14.6394 6.80918L14.6326 6.80606C14.282 6.64393 13.876 6.71314 13.6491 7.0448C13.5379 7.19062 13.4871 7.37339 13.5096 7.5561C13.5322 7.73933 13.6264 7.90483 13.7693 8.02042C13.8629 8.10332 13.9631 8.17901 14.0689 8.24684C14.4318 8.49041 14.7946 8.73419 15.1575 8.97796C16.3327 9.7676 17.5079 10.5572 18.6879 11.3401L18.6963 11.3456L18.7051 11.3505C18.7641 11.3831 18.8108 11.4302 18.8411 11.4852C18.8714 11.54 18.8845 11.601 18.8797 11.6615L18.8791 11.6698L18.879 11.6781C18.8684 12.621 18.8701 13.565 18.8718 14.5069C18.8724 14.8551 18.873 15.2031 18.873 15.5506L18.873 15.5524C18.8732 15.5741 18.8719 15.5987 18.8701 15.632L18.8698 15.6378C18.8681 15.6674 18.866 15.7044 18.8658 15.7413C18.8655 15.8143 18.8709 15.9317 18.9349 16.0402C18.9821 16.1204 19.0458 16.2183 19.1237 16.3045C19.198 16.3868 19.307 16.4832 19.4497 16.5218L19.4606 16.5247L19.4717 16.5267C19.5963 16.5485 19.7244 16.543 19.8467 16.5105C19.9689 16.478 20.0827 16.4191 20.1792 16.3377L20.1877 16.3304L20.1956 16.3225C20.2965 16.2205 20.3482 16.0887 20.3766 15.9779C20.4059 15.8633 20.4169 15.7453 20.4193 15.6463Z" fill="#1F69FF" stroke="#1F69FF" stroke-width="0.5"/>
</svg>
