<svg width="21" height="25" viewBox="0 0 21 25" fill="none" xmlns="http://www.w3.org/2000/svg">
<path d="M0 0.276092C0 0.202868 0.0324254 0.132642 0.0901425 0.0808645C0.14786 0.0290872 0.226141 0 0.307765 0H0.359207C4.30132 0 8.24402 0.00265267 12.1873 0.00795703C12.3878 0.0128372 12.5809 0.0771906 12.7363 0.190956C15.4149 2.29042 18.0884 4.39546 20.7568 6.50606C20.8341 6.55803 20.8965 6.62577 20.9387 6.70367C20.981 6.78158 21.002 6.8674 20.9999 6.95402C20.9928 12.6472 20.991 18.3398 20.9945 24.0319C20.9943 24.1044 20.9621 24.1738 20.9049 24.225C20.8477 24.2761 20.7702 24.3048 20.6894 24.3048H0.307765C0.267391 24.3049 0.227391 24.2979 0.190056 24.2841C0.152722 24.2703 0.118787 24.2501 0.0901966 24.2245C0.0616064 24.1989 0.0389229 24.1685 0.0234454 24.1351C0.00796792 24.1016 -1.68624e-07 24.0658 0 24.0295V0.276092ZM2.34327 22.4764C2.34327 22.4756 2.34398 22.4748 2.34486 22.4748H18.6158C18.6973 22.4748 18.7754 22.4459 18.8331 22.3943C18.8908 22.3426 18.9233 22.2726 18.9236 22.1995V8.48088C18.9236 8.44462 18.9156 8.40872 18.9001 8.37522C18.8847 8.34173 18.862 8.31129 18.8334 8.28565C18.8048 8.26001 18.7709 8.23967 18.7336 8.2258C18.6962 8.21192 18.6562 8.20479 18.6158 8.20479H10.7806C10.7403 8.20489 10.7003 8.19785 10.6629 8.18406C10.6256 8.17027 10.5917 8.15001 10.5631 8.12443C10.5345 8.09886 10.5118 8.06848 10.4963 8.03502C10.4808 8.00157 10.4729 7.96571 10.4729 7.92949V2.12599C10.473 2.08977 10.4651 2.05388 10.4498 2.02039C10.4344 1.9869 10.4118 1.95646 10.3833 1.93081C10.3548 1.90516 10.3209 1.88481 10.2836 1.87093C10.2464 1.85704 10.2064 1.8499 10.166 1.8499H2.34327C2.26165 1.8499 2.18337 1.87898 2.12565 1.93076C2.06793 1.98254 2.03551 2.05276 2.03551 2.12599V22.2027C2.03551 22.2389 2.04347 22.2748 2.05895 22.3083C2.07443 22.3417 2.09711 22.3721 2.1257 22.3977C2.15429 22.4232 2.18823 22.4435 2.22556 22.4573C2.26241 22.4709 2.30185 22.4779 2.34168 22.478C2.34256 22.478 2.34327 22.4773 2.34327 22.4764ZM16.0393 5.89818L13.0565 3.2232C13.0135 3.1847 12.9587 3.1585 12.8991 3.14789C12.8395 3.13729 12.7777 3.14275 12.7215 3.1636C12.6654 3.18445 12.6173 3.21975 12.5835 3.26505C12.5497 3.31034 12.5316 3.36361 12.5314 3.41813V6.09312C12.5317 6.1662 12.5642 6.23622 12.6219 6.28783C12.6796 6.33944 12.7577 6.36842 12.8392 6.36842H15.8211C15.8819 6.36868 15.9415 6.35271 15.9922 6.32253C16.0429 6.29235 16.0825 6.24932 16.1059 6.19891C16.1293 6.14851 16.1354 6.093 16.1236 6.03945C16.1117 5.98591 16.0823 5.93673 16.0393 5.89818Z" fill="#1F69FF"/>
<path d="M16.6085 11.2705H4.37062C4.20261 11.2705 4.06641 11.3927 4.06641 11.5434V12.176C4.06641 12.3267 4.20261 12.4489 4.37062 12.4489H16.6085C16.7765 12.4489 16.9127 12.3267 16.9127 12.176V11.5434C16.9127 11.3927 16.7765 11.2705 16.6085 11.2705Z" fill="#1F69FF"/>
<path d="M16.605 16.1348H4.36183C4.19382 16.1348 4.05762 16.257 4.05762 16.4077V17.0442C4.05762 17.1949 4.19382 17.3171 4.36183 17.3171H16.605C16.773 17.3171 16.9092 17.1949 16.9092 17.0442V16.4077C16.9092 16.257 16.773 16.1348 16.605 16.1348Z" fill="#1F69FF"/>
<path d="M16.6063 18.5703H4.36574C4.19773 18.5703 4.06152 18.6925 4.06152 18.8432V19.4694C4.06152 19.6201 4.19773 19.7423 4.36574 19.7423H16.6063C16.7743 19.7423 16.9105 19.6201 16.9105 19.4694V18.8432C16.9105 18.6925 16.7743 18.5703 16.6063 18.5703Z" fill="#1F69FF"/>
<path d="M16.605 13.7109H4.36623C4.19821 13.7109 4.06201 13.8331 4.06201 13.9838V14.6076C4.06201 14.7584 4.19821 14.8805 4.36623 14.8805H16.605C16.773 14.8805 16.9092 14.7584 16.9092 14.6076V13.9838C16.9092 13.8331 16.773 13.7109 16.605 13.7109Z" fill="#1F69FF"/>
<path d="M8.12424 8.83594H4.36721C4.19919 8.83594 4.06299 8.95812 4.06299 9.10885V9.74457C4.06299 9.8953 4.19919 10.0175 4.36721 10.0175H8.12424C8.29226 10.0175 8.42846 9.8953 8.42846 9.74457V9.10885C8.42846 8.95812 8.29226 8.83594 8.12424 8.83594Z" fill="#1F69FF"/>
</svg>
