<svg width="23" height="26" viewBox="0 0 23 26" fill="none" xmlns="http://www.w3.org/2000/svg">
<path d="M11.4891 15.6064C13.1853 15.6064 14.8816 15.5955 16.5778 15.6064C19.6512 15.6309 22.156 17.6708 22.8332 20.7031C22.9243 21.1295 22.9743 21.564 22.9825 22.0003C23.0053 22.8835 22.9933 23.7672 22.9891 24.651C22.9855 25.4199 22.4493 25.9879 21.7337 25.9946C21.0182 26.0013 20.4519 25.4596 20.4352 24.6919C20.4178 23.8692 20.4352 23.0459 20.4298 22.2233C20.4214 19.8725 18.7731 18.1954 16.4639 18.1923C13.1314 18.1891 9.79887 18.1891 6.46637 18.1923C4.48702 18.196 2.93714 19.5201 2.59885 21.4867C2.56481 21.7279 2.55057 21.9717 2.55626 22.2153C2.55086 23.0093 2.55626 23.8032 2.55626 24.5923C2.55026 25.426 2.01644 25.997 1.26009 25.9928C0.521134 25.986 -0.00789135 25.4089 0.000505877 24.5923C0.0107025 23.4857 -0.0312845 22.3735 0.067083 21.2748C0.316601 18.4849 2.66603 16.0468 5.39213 15.6785C5.77764 15.6284 6.16589 15.6033 6.55454 15.6034C8.19679 15.6016 9.84325 15.6064 11.4891 15.6064Z" fill="#1F69FF"/>
<path d="M11.4854 6.12534e-06C15.02 -0.00487983 17.8913 2.91387 17.8829 6.50505C17.8778 8.22696 17.2034 9.87679 16.0072 11.0939C14.811 12.311 13.1902 12.9964 11.4992 13.0003C7.97173 13.004 5.09509 10.0767 5.10108 6.48917C5.10505 4.76737 5.77932 3.11741 6.97607 1.901C8.17283 0.68459 9.79442 0.000971413 11.4854 6.12534e-06ZM11.4956 10.3937C12.5034 10.3819 13.4661 9.96626 14.1751 9.23678C14.8841 8.5073 15.2822 7.52274 15.2832 6.49645C15.2842 5.47015 14.8881 4.48477 14.1806 3.75382C13.4731 3.02288 12.5112 2.60524 11.5034 2.59139C9.38907 2.5804 7.65504 4.34667 7.65984 6.50749C7.66102 7.01913 7.76118 7.52553 7.95459 7.99775C8.14801 8.46998 8.4309 8.89877 8.78709 9.25965C9.14329 9.62053 9.56582 9.90643 10.0305 10.101C10.4953 10.2956 10.9931 10.395 11.4956 10.3937Z" fill="#1F69FF"/>
</svg>
