<svg width="31" height="31" viewBox="0 0 31 31" fill="none" xmlns="http://www.w3.org/2000/svg">
<path d="M12.0953 0.750002L12.0848 0.749962L12.0745 0.75079C11.9215 0.762977 11.7645 0.773374 11.6057 0.783898C11.3054 0.80379 10.9983 0.824137 10.6982 0.857887L10.6982 0.857872L10.6955 0.858205C9.17763 1.04562 7.71356 1.53543 6.39132 2.29828C5.06907 3.06114 3.9159 4.0813 3.00122 5.29756C2.08654 6.51383 1.42925 7.90105 1.06899 9.37585C0.708734 10.8507 0.65296 12.3825 0.90504 13.8792L0.905077 13.8795C2.18805 21.4556 10.6009 25.5634 17.4303 21.9424L17.4327 21.9411C17.5725 21.8651 17.6321 21.8652 17.661 21.8708C17.6961 21.8775 17.753 21.9047 17.8656 22.0169C20.2086 24.3562 22.5565 26.6892 24.9095 29.0159C25.3618 29.4637 25.8675 29.7686 26.422 29.9064C26.9773 30.0444 27.5659 30.0109 28.1767 29.8059C30.3675 29.0711 30.9505 26.35 29.3026 24.7058L29.3024 24.7057C26.9214 22.334 24.5349 19.9692 22.143 17.611L22.1429 17.6109C22.0552 17.5245 22.0468 17.4898 22.0454 17.4816C22.0444 17.4753 22.04 17.4405 22.0988 17.3327C23.205 15.3092 23.6515 12.9952 23.3763 10.7095C22.7383 5.06497 17.8551 0.772004 12.0953 0.750002ZM12.0975 21.4621C9.57285 21.4579 7.15351 20.4601 5.37102 18.6886C3.58832 16.9168 2.58848 14.5161 2.59058 12.0143L2.59058 12.014C2.58989 10.7758 2.83527 9.54965 3.31274 8.40545C3.79022 7.26125 4.49048 6.22142 5.37359 5.34543C6.25671 4.46943 7.30539 3.77445 8.45974 3.30031C9.61406 2.82618 10.8514 2.5822 12.1009 2.58236C13.3506 2.58322 14.5878 2.82821 15.7419 3.3033C16.8959 3.77838 17.9441 4.4742 18.8266 5.35092C19.709 6.22763 20.4086 7.26803 20.8852 8.41264C21.3619 9.55725 21.6064 10.7837 21.6048 12.0219V12.0224C21.6059 13.2611 21.3608 14.4878 20.8835 15.6326C20.4062 16.7774 19.7061 17.8179 18.823 18.6946C17.9399 19.5713 16.8912 20.2671 15.7366 20.7419C14.583 21.2164 13.3465 21.4611 12.0975 21.4621ZM21.1215 19.157C23.4013 21.4217 25.6833 23.6834 27.9675 25.9421L27.9683 25.9429C28.1759 26.1463 28.3093 26.3545 28.3744 26.5686C28.439 26.7805 28.4414 27.0137 28.3637 27.2774C28.3061 27.4721 28.2008 27.6498 28.0569 27.7946C27.913 27.9395 27.735 28.0469 27.5386 28.1071C27.3423 28.1673 27.1339 28.1784 26.9321 28.1394C26.731 28.1004 26.5428 28.0129 26.3843 27.8847C26.3043 27.8178 26.228 27.7467 26.1559 27.6717L26.1559 27.6716L26.1516 27.6673L19.3218 20.9021L21.1215 19.157Z" fill="#1F69FF" stroke="#1F69FF" stroke-width="0.5"/>
<path d="M15.8879 7.01747V7.01749C17.5195 7.03506 18.7374 8.21764 18.7507 9.84804L18.7507 9.84815C18.7643 11.6026 18.7643 13.3574 18.7507 15.1127L15.8879 7.01747ZM15.8879 7.01747H15.8852M15.8879 7.01747H15.8852M15.8852 7.01747H15.8831H15.881H15.879H15.8769H15.8748H15.8728H15.8707H15.8686H15.8666H15.8645H15.8624H15.8604H15.8583H15.8562H15.8542H15.8521H15.85H15.8479H15.8459H15.8438H15.8417H15.8397H15.8376H15.8355H15.8335H15.8314H15.8293H15.8273H15.8252H15.8231H15.8211H15.819H15.8169H15.8149H15.8128H15.8107H15.8087H15.8066H15.8045H15.8025H15.8004H15.7983H15.7963H15.7942H15.7921H15.7901H15.788H15.7859H15.7839H15.7818H15.7797H15.7777H15.7756H15.7735H15.7714H15.7694H15.7673H15.7652H15.7632H15.7611H15.759H15.757H15.7549H15.7528H15.7508H15.7487H15.7466H15.7446H15.7425H15.7404H15.7384H15.7363H15.7342H15.7322H15.7301H15.728H15.726H15.7239H15.7218H15.7198H15.7177H15.7156H15.7136H15.7115H15.7094H15.7074H15.7053H15.7032H15.7012H15.6991H15.697H15.695H15.6929H15.6908H15.6888H15.6867H15.6846H15.6826H15.6805H15.6784H15.6764H15.6743H15.6722H15.6702H15.6681H15.666H15.664H15.6619H15.6598H15.6578H15.6557H15.6536H15.6516H15.6495H15.6475H15.6454H15.6433H15.6413H15.6392H15.6371H15.6351H15.633H15.6309H15.6289H15.6268H15.6247H15.6227H15.6206H15.6185H15.6165H15.6144H15.6123H15.6103H15.6082H15.6061H15.6041H15.602H15.5999H15.5979H15.5958H15.5938H15.5917H15.5896H15.5876H15.5855H15.5834H15.5814H15.5793H15.5772H15.5752H15.5731H15.571H15.569H15.5669H15.5648H15.5628H15.5607H15.5587H15.5566H15.5545H15.5525H15.5504H15.5483H15.5463H15.5442H15.5421H15.5401H15.538H15.536H15.5339H15.5318H15.5298H15.5277H15.5256H15.5236H15.5215H15.5195H15.5174H15.5153H15.5133H15.5112H15.5091H15.5071H15.505H15.5029H15.5009H15.4988H15.4968H15.4947H15.4926H15.4906H15.4885H15.4864H15.4844H15.4823H15.4803H15.4782H15.4761H15.4741H15.472H15.47H15.4679H15.4658H15.4638H15.4617H15.4596H15.4576H15.4555H15.4535H15.4514H15.4493H15.4473H15.4452H15.4432H15.4411H15.439H15.437H15.4349H15.4329H15.4308H15.4287H15.4267H15.4246H15.4226H15.4205H15.4184H15.4164H15.4143H15.4123H15.4102H15.4081H15.4061H15.404H15.402H15.3999H15.3978H15.3958H15.3937H15.3917H15.3896H15.3875H15.3855H15.3834H15.3814H15.3793H15.3772H15.3752H15.3731H15.3711H15.369H15.367H15.3649H15.3628H15.3608H15.3587H15.3567H15.3546H15.3525H15.3505H15.3484H15.3464H15.3443H15.3423H15.3402H15.3381H15.3361H15.334H15.332H15.3299H15.3279H15.3258H15.3237H15.3217H15.3196H15.3176H15.3155H15.3135H15.3114H15.3094H15.3073H15.3052H15.3032H15.3011H15.2991H15.297H15.295H15.2929H15.2909H15.2888H15.2867H15.2847H15.2826H15.2806H15.2785H15.2765H15.2744H15.2724H15.2703H15.2683H15.2662H15.2641H15.2621H15.26H15.258H15.2559H15.2539H15.2518H15.2498H15.2477H15.2457H15.2436H15.2416H15.2395H15.2374H15.2354H15.2333H15.2313H15.2292H15.2272H15.2251H15.2231H15.221H15.219H15.2169H15.2149H15.2128H15.2108H15.2087H15.2067H15.2046H15.2026H15.2005H15.1985H15.1964H15.1944H15.1923H15.1903H15.1882H15.1862H15.1841H15.1821H15.18H15.178H15.1759H15.1739H15.1718H15.1698H15.1677H15.1657H15.1636H15.1616H15.1595H15.1575H15.1554H15.1534H15.1513H15.1493H15.1472H15.1452H15.1431H15.1411H15.139H15.137H15.1349H15.1329H15.1308H15.1288H15.1267H15.1247H15.1226H15.1206H15.1186H15.1165H15.1145H15.1124H15.1104H15.1083H15.1063H15.1042H15.1022H15.1001H15.0981H15.096H15.094H15.092H15.0899H15.0879H15.0858H15.0838H15.0817H15.0797H15.0776H15.0756H15.0736H15.0715H15.0695H15.0674H15.0654H15.0633H15.0613H15.0592H15.0572H15.0552H15.0531H15.052C14.9263 6.21414 14.6163 5.54741 14.1438 5.06705C13.6258 4.54043 12.9298 4.25568 12.1206 4.24914C11.3104 4.24258 10.6115 4.52001 10.0875 5.04628M15.8852 7.01747L10.0875 5.04628M15.8879 17.9435L15.8877 17.9435C13.3668 17.9551 10.8464 17.9551 8.32644 17.9435C6.66493 17.9429 5.46545 16.7281 5.45796 15.0785L15.8879 17.9435ZM15.8879 17.9435C17.529 17.9347 18.7388 16.7417 18.7507 15.1128L15.8879 17.9435ZM12.2665 12.033L12.1848 11.7967L12.1831 11.7973L12.2665 12.033ZM12.2665 12.033C12.1731 12.0661 12.0717 12.0698 11.9761 12.0438L12.2665 12.033ZM10.0875 5.04628C9.60874 5.52712 9.29049 6.20065 9.15279 7.0172M10.0875 5.04628L9.15279 7.0172M9.15279 7.0172C9.10624 7.0171 9.0601 7.01698 9.01432 7.01686C8.78944 7.01627 8.573 7.0157 8.35707 7.01748L9.15279 7.0172ZM7.27456 15.0372V15.0436C7.27456 15.401 7.3841 15.6606 7.55735 15.831C7.73117 16.0019 7.99703 16.1105 8.36193 16.1111H8.37614H8.39075H8.40536H8.41998H8.43459H8.4492H8.46381H8.47842H8.49304H8.50765H8.52226H8.53687H8.55149H8.5661H8.58071H8.59532H8.60993H8.62455H8.63916H8.65377H8.66838H8.68299H8.69761H8.71222H8.72683H8.74144H8.75605H8.77067H8.78528H8.79989H8.8145H8.82911H8.84372H8.85834H8.87295H8.88756H8.90217H8.91678H8.93139H8.94601H8.96062H8.97523H8.98984H9.00445H9.01906H9.03368H9.04829H9.0629H9.07751H9.09212H9.10673H9.12134H9.13596H9.15057H9.16518H9.17979H9.1944H9.20901H9.22362H9.23823H9.25285H9.26746H9.28207H9.29668H9.31129H9.3259H9.34051H9.35512H9.36973H9.38435H9.39896H9.41357H9.42818H9.44279H9.4574H9.47201H9.48662H9.50123H9.51584H9.53045H9.54506H9.55968H9.57429H9.5889H9.60351H9.61812H9.63273H9.64734H9.66195H9.67656H9.69117H9.70578H9.72039H9.735H9.74961H9.76422H9.77883H9.79344H9.80806H9.82267H9.83728H9.85189H9.8665H9.88111H9.89572H9.91033H9.92494H9.93955H9.95416H9.96877H9.98338H9.99799H10.0126H10.0272H10.0418H10.0564H10.071H10.0856H10.1003H10.1149H10.1295H10.1441H10.1587H10.1733H10.1879H10.2025H10.2171H10.2317H10.2464H10.261H10.2756H10.2902H10.3048H10.3194H10.334H10.3486H10.3632H10.3778H10.3925H10.4071H10.4217H10.4363H10.4509H10.4655H10.4801H10.4947H10.5093H10.5239H10.5385H10.5532H10.5678H10.5824H10.597H10.6116H10.6262H10.6408H10.6554H10.67H10.6846H10.6993H10.7139H10.7285H10.7431H10.7577H10.7723H10.7869H10.8015H10.8161H10.8307H10.8453H10.8599H10.8746H10.8892H10.9038H10.9184H10.933H10.9476H10.9622H10.9768H10.9914H11.006H11.0206H11.0353H11.0499H11.0645H11.0791H11.0937H11.1083H11.1229H11.1375H11.1521H11.1667H11.1813H11.1959H11.2106H11.2252H11.2398H11.2544H11.269H11.2836H11.2982H11.3128H11.3274H11.342H11.3566H11.3712H11.3859H11.4005H11.4151H11.4297H11.4443H11.4589H11.4735H11.4881H11.5027H11.5173H11.5319H11.5465H11.5612H11.5758H11.5904H11.605H11.6196H11.6342H11.6488H11.6634H11.678H11.6926H11.7072H11.7218H11.7364H11.7511H11.7657H11.7803H11.7949H11.8095H11.8241H11.8387H11.8533H11.8679H11.8825H11.8971H11.9117H11.9263H11.941H11.9556H11.9702H11.9848H11.9994H12.014H12.0286H12.0432H12.0578H12.0724H12.087H12.1016H12.1162H12.1308H12.1455H12.1601H12.1747H12.1893H12.2039H12.2185H12.2331H12.2477H12.2623H12.2769H12.2915H12.3061H12.3207H12.3353H12.3499H12.3646H12.3792H12.3938H12.4084H12.423H12.4376H12.4522H12.4668H12.4814H12.496H12.5106H12.5252H12.5398H12.5544H12.569H12.5837H12.5983H12.6129H12.6275H12.6421H12.6567H12.6713H12.6859H12.7005H12.7151H12.7297H12.7443H12.7589H12.7735H12.7881H12.8027H12.8174H12.832H12.8466H12.8612H12.8758H12.8904H12.905H12.9196H12.9342H12.9488H12.9634H12.978H12.9926H13.0072H13.0218H13.0364H13.0511H13.0657H13.0803H13.0949H13.1095H13.1241H13.1387H13.1533H13.1679H13.1825H13.1971H13.2117H13.2263H13.2409H13.2555H13.2701H13.2847H13.2993H13.314H13.3286H13.3432H13.3578H13.3724H13.387H13.4016H13.4162H13.4308H13.4454H13.46H13.4746H13.4892H13.5038H13.5184H13.533H13.5476H13.5622H13.5768H13.5915H13.6061H13.6207H13.6353H13.6499H13.6645H13.6791H13.6937H13.7083H13.7229H13.7375H13.7521H13.7667H13.7813H13.7959H13.8105H13.8251H13.8397H13.8543H13.8689H13.8835H13.8982H13.9128H13.9274H13.942H13.9566H13.9712H13.9858H14.0004H14.015H14.0296H14.0442H14.0588H14.0734H14.088H14.1026H14.1172H14.1318H14.1464H14.161H14.1756H14.1902H14.2048H14.2194H14.2341H14.2487H14.2633H14.2779H14.2925H14.3071H14.3217H14.3363H14.3509H14.3655H14.3801H14.3947H14.4093H14.4239H14.4385H14.4531H14.4677H14.4823H14.4969H14.5115H14.5261H14.5407H14.5553H14.5699H14.5845H14.5991H14.6138H14.6284H14.643H14.6576H14.6722H14.6868H14.7014H14.716H14.7306H14.7452H14.7598H14.7744H14.789H14.8036H14.8182H14.8328H14.8474H14.862H14.8766H14.8912H14.9058H14.9204H14.935H14.9496H14.9642H14.9788H14.9934H15.008H15.0226H15.0372H15.0518H15.0665H15.0811H15.0957H15.1103H15.1249H15.1395H15.1541H15.1687H15.1833H15.1979H15.2125H15.2271H15.2417H15.2563H15.2709H15.2855H15.3001H15.3147H15.3293H15.3439H15.3585H15.3731H15.3877H15.4023H15.4169H15.4315H15.4461H15.4607H15.4753H15.4899H15.5045H15.5191H15.5337H15.5483H15.5629H15.5775H15.5921H15.6067H15.6213H15.636H15.6506H15.6652H15.6798H15.6944H15.709H15.7236H15.7382H15.7528H15.7674H15.782H15.7966H15.8112H15.8258H15.8404C16.2039 16.1111 16.4673 16.0025 16.6397 15.8314C16.812 15.6604 16.9214 15.3995 16.9233 15.0402L7.27456 15.0372ZM7.27456 15.0372V15.0309V15.0246V15.0182V15.0119V15.0056V14.9993V14.9929V14.9866V14.9803V14.9739V14.9676V14.9613V14.9549V14.9486V14.9423V14.9359V14.9296V14.9233V14.9169V14.9106V14.9043V14.8979V14.8916V14.8853V14.8789V14.8726V14.8663V14.8599V14.8536V14.8473V14.8409V14.8346V14.8283V14.8219V14.8156V14.8093V14.8029V14.7966V14.7903V14.7839V14.7776V14.7713V14.7649V14.7586V14.7523V14.7459V14.7396V14.7333V14.7269V14.7206V14.7143V14.7079V14.7016V14.6953V14.6889V14.6826V14.6762V14.6699V14.6636V14.6572V14.6509V14.6446V14.6382V14.6319V14.6256V14.6192V14.6129V14.6066V14.6002V14.5939V14.5875V14.5812V14.5749V14.5685V14.5622V14.5559V14.5495V14.5432V14.5368V14.5305V14.5242V14.5178V14.5115V14.5051V14.4988V14.4925V14.4861V14.4798V14.4734V14.4671V14.4608V14.4544V14.4481V14.4417V14.4354V14.4291V14.4227V14.4164V14.41V14.4037V14.3974V14.391V14.3847V14.3783V14.372V14.3656V14.3593V14.353V14.3466V14.3403V14.3339V14.3276V14.3212V14.3149V14.3085V14.3022V14.2959V14.2895V14.2832V14.2768V14.2705V14.2641V14.2578V14.2514V14.2451V14.2387V14.2324V14.226V14.2197V14.2133V14.207V14.2006V14.1943V14.1879V14.1816V14.1752V14.1689V14.1625V14.1562V14.1498V14.1435V14.1371V14.1308V14.1244V14.1181V14.1117V14.1054V14.099V14.0927V14.0863V14.08V14.0736V14.0673V14.0609V14.0545V14.0482V14.0418V14.0355V14.0291V14.0228V14.0164V14.01V14.0037V13.9973V13.991V13.9846V13.9783V13.9719V13.9655V13.9592V13.9528V13.9465V13.9401V13.9337V13.9274V13.921V13.9146V13.9083V13.9019V13.8956V13.8892V13.8828V13.8765V13.8701V13.8637V13.8574V13.851V13.8446V13.8383V13.8319V13.8255V13.8192V13.8128V13.8064V13.8001V13.7937V13.7873V13.7809V13.7746V13.7682V13.7618V13.7555V13.7491V13.7427V13.7363V13.73V13.7236V13.7172V13.7109V13.7045V13.6981V13.6917V13.6854V13.679V13.6726V13.6662V13.6598V13.6535V13.6471V13.6407V13.6343V13.6279V13.6216V13.6152V13.6088V13.6024V13.596V13.5897V13.5833V13.5769V13.5705V13.5641V13.5577V13.5514V13.545V13.5386V13.5322V13.5258V13.5194V13.513V13.5066V13.5003V13.4939V13.4875V13.4811V13.4747V13.4683V13.4619V13.4555V13.4491V13.4427V13.4363V13.43V13.4236V13.4172V13.4108V13.4044V13.398V13.3916V13.3852V13.3788V13.3724V13.366V13.3596V13.3532V13.3468V13.3404V13.334V13.3276V13.3212V13.3148V13.3084V13.302V13.2956V13.2892V13.2828V13.2763V13.2699V13.2635V13.2571V13.2507V13.2443V13.2379V13.2315V13.2251V13.2187V13.2123V13.2058V13.1994V13.193V13.1866V13.1802V13.1738V13.1674V13.1609V13.1545V13.1481V13.1417V13.1353V13.1288V13.1224V13.116V13.1096V13.1032V13.0967V13.0903V13.0839V13.0775V13.0711V13.0646V13.0582V13.0518V13.0453V13.0389V13.0325V13.0261V13.0196V13.0132V13.0068V13.0003V12.9939V12.9875V12.981V12.9746V12.9682V12.9617V12.9553V12.9489V12.9424V12.936V12.9296V12.9231V12.9167V12.9102V12.9038V12.8974V12.8909V12.8845V12.878V12.8716V12.8651V12.8587V12.8523V12.8458V12.8394V12.8329V12.8265V12.82V12.8136V12.8071V12.8007V12.7942V12.7878V12.7813V12.7749V12.7684V12.7619V12.7555V12.749V12.7426V12.7361V12.7297V12.7232V12.7167V12.7103V12.7038V12.6974V12.6909V12.6844V12.678V12.6715V12.665V12.6586V12.6521V12.6456V12.6392V12.6327V12.6262V12.6198V12.6133V12.6068V12.6003V12.5939V12.5874V12.5809V12.5744V12.568V12.5615V12.555V12.5485V12.542V12.5356V12.5291V12.5226V12.5161V12.5096V12.5032V12.4967V12.4902V12.4837V12.4772V12.4707V12.4642V12.4577V12.4513V12.4448V12.4383V12.4318V12.4253V12.4188V12.4123V12.4058V12.3993V12.3928V12.3863V12.3798V12.3733V12.3668V12.3603V12.3538V12.3473V12.3408V12.3343V12.3278V12.3213V12.3148V12.3083V12.3018V12.2952V12.2887V12.2822V12.2757V12.2692V12.2627V12.2562V12.2497V12.2431V12.2366V12.2301V12.2236V12.2171V12.2105V12.204V12.1975V12.191V12.1844V12.1779V12.1714V12.1649V12.1583V12.1518V12.1453V12.1388V12.1322V12.1257V12.1192V12.1126V12.1061V12.1003V15.0372ZM16.9233 12.0779V12.0775V12.0779ZM16.9233 12.0779V12.0838M16.9233 12.0779V12.0838M16.9233 12.0838V12.0897M16.9233 12.0838V12.0897M16.9233 12.0897V12.0956M16.9233 12.0897V12.0956M16.9233 12.0956V12.1015M16.9233 12.0956V12.1015M16.9233 12.1015V12.1074M16.9233 12.1015V12.1074M16.9233 12.1074V12.1133M16.9233 12.1074V12.1133M16.9233 12.1133V12.1193M16.9233 12.1133V12.1193M16.9233 12.1193V12.1252M16.9233 12.1193V12.1252M16.9233 12.1252V12.1311M16.9233 12.1252V12.1311M16.9233 12.1311V12.137M16.9233 12.1311V12.137M16.9233 12.137V12.1429M16.9233 12.137V12.1429M16.9233 12.1429V12.1488M16.9233 12.1429V12.1488M16.9233 12.1488V12.1547M16.9233 12.1488V12.1547M16.9233 12.1547V12.1607M16.9233 12.1547V12.1607M16.9233 12.1607V12.1666M16.9233 12.1607V12.1666M16.9233 12.1666V12.1725M16.9233 12.1666V12.1725M16.9233 12.1725V12.1784M16.9233 12.1725V12.1784M16.9233 12.1784V12.1843M16.9233 12.1784V12.1843M16.9233 12.1843V12.1902M16.9233 12.1843V12.1902M16.9233 12.1902V12.1961M16.9233 12.1902V12.1961M16.9233 12.1961V12.2021M16.9233 12.1961V12.2021M16.9233 12.2021V12.208M16.9233 12.2021V12.208M16.9233 12.208V12.2139M16.9233 12.208V12.2139M16.9233 12.2139V12.2198M16.9233 12.2139V12.2198M16.9233 12.2198V12.2257M16.9233 12.2198V12.2257M16.9233 12.2257V12.2316M16.9233 12.2257V12.2316M16.9233 12.2316V12.2375M16.9233 12.2316V12.2375M16.9233 12.2375V12.2435M16.9233 12.2375V12.2435M16.9233 12.2435V12.2494M16.9233 12.2435V12.2494M16.9233 12.2494V12.2553M16.9233 12.2494V12.2553M16.9233 12.2553V12.2612M16.9233 12.2553V12.2612M16.9233 12.2612V12.2671M16.9233 12.2612V12.2671M16.9233 12.2671V12.273M16.9233 12.2671V12.273M16.9233 12.273V12.2789M16.9233 12.273V12.2789M16.9233 12.2789V12.2849M16.9233 12.2789V12.2849M16.9233 12.2849V12.2908M16.9233 12.2849V12.2908M16.9233 12.2908V12.2967M16.9233 12.2908V12.2967M16.9233 12.2967V12.3026M16.9233 12.2967V12.3026M16.9233 12.3026V12.3085M16.9233 12.3026V12.3085M16.9233 12.3085V12.3144M16.9233 12.3085V12.3144M16.9233 12.3144V12.3203M16.9233 12.3144V12.3203M16.9233 12.3203V12.3263M16.9233 12.3203V12.3263M16.9233 12.3263V12.3322M16.9233 12.3263V12.3322M16.9233 12.3322V12.3381M16.9233 12.3322V12.3381M16.9233 12.3381V12.344M16.9233 12.3381V12.344M16.9233 12.344V12.3499M16.9233 12.344V12.3499M16.9233 12.3499V12.3558M16.9233 12.3499V12.3558M16.9233 12.3558V12.3617M16.9233 12.3558V12.3617M16.9233 12.3617V12.3677M16.9233 12.3617V12.3677M16.9233 12.3677V12.3736M16.9233 12.3677V12.3736M16.9233 12.3736V12.3795M16.9233 12.3736V12.3795M16.9233 12.3795V12.3854M16.9233 12.3795V12.3854M16.9233 12.3854V12.3913M16.9233 12.3854V12.3913M16.9233 12.3913V12.3972M16.9233 12.3913V12.3972M16.9233 12.3972V12.4031M16.9233 12.3972V12.4031M16.9233 12.4031V12.4091M16.9233 12.4031V12.4091M16.9233 12.4091V12.415M16.9233 12.4091V12.415M16.9233 12.415V12.4209M16.9233 12.415V12.4209M16.9233 12.4209V12.4268M16.9233 12.4209V12.4268M16.9233 12.4268V12.4327M16.9233 12.4268V12.4327M16.9233 12.4327V12.4386M16.9233 12.4327V12.4386M16.9233 12.4386V12.4445M16.9233 12.4386V12.4445M16.9233 12.4445V12.4505M16.9233 12.4445V12.4505M16.9233 12.4505V12.4564M16.9233 12.4505V12.4564M16.9233 12.4564V12.4623M16.9233 12.4564V12.4623M16.9233 12.4623V12.4682M16.9233 12.4623V12.4682M16.9233 12.4682V12.4741M16.9233 12.4682V12.4741M16.9233 12.4741V12.48M16.9233 12.4741V12.48M16.9233 12.48V12.4859M16.9233 12.48V12.4859M16.9233 12.4859V12.4919M16.9233 12.4859V12.4919M16.9233 12.4919V12.4978M16.9233 12.4919V12.4978M16.9233 12.4978V12.5037M16.9233 12.4978V12.5037M16.9233 12.5037V12.5096M16.9233 12.5037V12.5096M16.9233 12.5096V12.5155M16.9233 12.5096V12.5155M16.9233 12.5155V12.5214M16.9233 12.5155V12.5214M16.9233 12.5214V12.5273M16.9233 12.5214V12.5273M16.9233 12.5273V12.5333M16.9233 12.5273V12.5333M16.9233 12.5333V12.5392M16.9233 12.5333V12.5392M16.9233 12.5392V12.5451M16.9233 12.5392V12.5451M16.9233 12.5451V12.551M16.9233 12.5451V12.551M16.9233 12.551V12.5569M16.9233 12.551V12.5569M16.9233 12.5569V12.5628M16.9233 12.5569V12.5628M16.9233 12.5628V12.5687M16.9233 12.5628V12.5687M16.9233 12.5687V12.5747M16.9233 12.5687V12.5747M16.9233 12.5747V12.5806M16.9233 12.5747V12.5806M16.9233 12.5806V12.5865M16.9233 12.5806V12.5865M16.9233 12.5865V12.5924M16.9233 12.5865V12.5924M16.9233 12.5924V12.5983M16.9233 12.5924V12.5983M16.9233 12.5983V12.6042M16.9233 12.5983V12.6042M16.9233 12.6042V12.6101M16.9233 12.6042V12.6101M16.9233 12.6101V12.6161M16.9233 12.6101V12.6161M16.9233 12.6161V12.622M16.9233 12.6161V12.622M16.9233 12.622V12.6279M16.9233 12.622V12.6279M16.9233 12.6279V12.6338M16.9233 12.6279V12.6338M16.9233 12.6338V12.6397M16.9233 12.6338V12.6397M16.9233 12.6397V12.6456M16.9233 12.6397V12.6456M16.9233 12.6456V12.6515M16.9233 12.6456V12.6515M16.9233 12.6515V12.6575M16.9233 12.6515V12.6575M16.9233 12.6575V12.6634M16.9233 12.6575V12.6634M16.9233 12.6634V12.6693M16.9233 12.6634V12.6693M16.9233 12.6693V12.6752M16.9233 12.6693V12.6752M16.9233 12.6752V12.6811M16.9233 12.6752V12.6811M16.9233 12.6811V12.687M16.9233 12.6811V12.687M16.9233 12.687V12.6929M16.9233 12.687V12.6929M16.9233 12.6929V12.6989M16.9233 12.6929V12.6989M16.9233 12.6989V12.7048M16.9233 12.6989V12.7048M16.9233 12.7048V12.7107M16.9233 12.7048V12.7107M16.9233 12.7107V12.7166M16.9233 12.7107V12.7166M16.9233 12.7166V12.7225M16.9233 12.7166V12.7225M16.9233 12.7225V12.7284M16.9233 12.7225V12.7284M16.9233 12.7284V12.7343M16.9233 12.7284V12.7343M16.9233 12.7343V12.7403M16.9233 12.7343V12.7403M16.9233 12.7403V12.7462M16.9233 12.7403V12.7462M16.9233 12.7462V12.7521M16.9233 12.7462V12.7521M16.9233 12.7521V12.758M16.9233 12.7521V12.758M16.9233 12.758V12.7639M16.9233 12.758V12.7639M16.9233 12.7639V12.7698M16.9233 12.7639V12.7698M16.9233 12.7698V12.7757M16.9233 12.7698V12.7757M16.9233 12.7757V12.7817M16.9233 12.7757V12.7817M16.9233 12.7817V12.7876M16.9233 12.7817V12.7876M16.9233 12.7876V12.7935M16.9233 12.7876V12.7935M16.9233 12.7935V12.7994M16.9233 12.7935V12.7994M16.9233 12.7994V12.8053M16.9233 12.7994V12.8053M16.9233 12.8053V12.8112M16.9233 12.8053V12.8112M16.9233 12.8112V12.8171M16.9233 12.8112V12.8171M16.9233 12.8171V12.823M16.9233 12.8171V12.823M16.9233 12.823V12.829M16.9233 12.823V12.829M16.9233 12.829V12.8349M16.9233 12.829V12.8349M16.9233 12.8349V12.8408M16.9233 12.8349V12.8408M16.9233 12.8408V12.8467M16.9233 12.8408V12.8467M16.9233 12.8467V12.8526M16.9233 12.8467V12.8526M16.9233 12.8526V12.8585M16.9233 12.8526V12.8585M16.9233 12.8585V12.8644M16.9233 12.8585V12.8644M16.9233 12.8644V12.8704M16.9233 12.8644V12.8704M16.9233 12.8704V12.8763M16.9233 12.8704V12.8763M16.9233 12.8763V12.8822M16.9233 12.8763V12.8822M16.9233 12.8822V12.8881M16.9233 12.8822V12.8881M16.9233 12.8881V12.894M16.9233 12.8881V12.894M16.9233 12.894V12.8999M16.9233 12.894V12.8999M16.9233 12.8999V12.9058M16.9233 12.8999V12.9058M16.9233 12.9058V12.9118M16.9233 12.9058V12.9118M16.9233 12.9118V12.9177M16.9233 12.9118V12.9177M16.9233 12.9177V12.9236M16.9233 12.9177V12.9236M16.9233 12.9236V12.9295M16.9233 12.9236V12.9295M16.9233 12.9295V12.9354M16.9233 12.9295V12.9354M16.9233 12.9354V12.9413M16.9233 12.9354V12.9413M16.9233 12.9413V12.9472M16.9233 12.9413V12.9472M16.9233 12.9472V12.9532M16.9233 12.9472V12.9532M16.9233 12.9532V12.9591M16.9233 12.9532V12.9591M16.9233 12.9591V12.965M16.9233 12.9591V12.965M16.9233 12.965V12.9709M16.9233 12.965V12.9709M16.9233 12.9709V12.9768M16.9233 12.9709V12.9768M16.9233 12.9768V12.9827M16.9233 12.9768V12.9827M16.9233 12.9827V12.9886M16.9233 12.9827V12.9886M16.9233 12.9886V12.9946M16.9233 12.9886V12.9946M16.9233 12.9946V13.0005M16.9233 12.9946V13.0005M16.9233 13.0005V13.0064M16.9233 13.0005V13.0064M16.9233 13.0064V13.0123M16.9233 13.0064V13.0123M16.9233 13.0123V13.0182M16.9233 13.0123V13.0182M16.9233 13.0182V13.0241M16.9233 13.0182V13.0241M16.9233 13.0241V13.03M16.9233 13.0241V13.03M16.9233 13.03V13.036M16.9233 13.03V13.036M16.9233 13.036V13.0419M16.9233 13.036V13.0419M16.9233 13.0419V13.0478M16.9233 13.0419V13.0478M16.9233 13.0478V13.0537M16.9233 13.0478V13.0537M16.9233 13.0537V13.0596M16.9233 13.0537V13.0596M16.9233 13.0596V13.0655M16.9233 13.0596V13.0655M16.9233 13.0655V13.0714M16.9233 13.0655V13.0714M16.9233 13.0714V13.0774M16.9233 13.0714V13.0774M16.9233 13.0774V13.0833M16.9233 13.0774V13.0833M16.9233 13.0833V13.0892M16.9233 13.0833V13.0892M16.9233 13.0892V13.0951M16.9233 13.0892V13.0951M16.9233 13.0951V13.101M16.9233 13.0951V13.101M16.9233 13.101V13.1069M16.9233 13.101V13.1069M16.9233 13.1069V13.1128M16.9233 13.1069V13.1128M16.9233 13.1128V13.1188M16.9233 13.1128V13.1188M16.9233 13.1188V13.1247M16.9233 13.1188V13.1247M16.9233 13.1247V13.1306M16.9233 13.1247V13.1306M16.9233 13.1306V13.1365M16.9233 13.1306V13.1365M16.9233 13.1365V13.1424M16.9233 13.1365V13.1424M16.9233 13.1424V13.1483M16.9233 13.1424V13.1483M16.9233 13.1483V13.1542M16.9233 13.1483V13.1542M16.9233 13.1542V13.1602M16.9233 13.1542V13.1602M16.9233 13.1602V13.1661M16.9233 13.1602V13.1661M16.9233 13.1661V13.172M16.9233 13.1661V13.172M16.9233 13.172V13.1779M16.9233 13.172V13.1779M16.9233 13.1779V13.1838M16.9233 13.1779V13.1838M16.9233 13.1838V13.1897M16.9233 13.1838V13.1897M16.9233 13.1897V13.1956M16.9233 13.1897V13.1956M16.9233 13.1956V13.2016M16.9233 13.1956V13.2016M16.9233 13.2016V13.2075M16.9233 13.2016V13.2075M16.9233 13.2075V13.2134M16.9233 13.2075V13.2134M16.9233 13.2134V13.2193M16.9233 13.2134V13.2193M16.9233 13.2193V13.2252M16.9233 13.2193V13.2252M16.9233 13.2252V13.2311M16.9233 13.2252V13.2311M16.9233 13.2311V13.237M16.9233 13.2311V13.237M16.9233 13.237V13.243M16.9233 13.237V13.243M16.9233 13.243V13.2489M16.9233 13.243V13.2489M16.9233 13.2489V13.2548M16.9233 13.2489V13.2548M16.9233 13.2548V13.2607M16.9233 13.2548V13.2607M16.9233 13.2607V13.2666M16.9233 13.2607V13.2666M16.9233 13.2666V13.2725M16.9233 13.2666V13.2725M16.9233 13.2725V13.2784M16.9233 13.2725V13.2784M16.9233 13.2784V13.2844M16.9233 13.2784V13.2844M16.9233 13.2844V13.2903M16.9233 13.2844V13.2903M16.9233 13.2903V13.2962M16.9233 13.2903V13.2962M16.9233 13.2962V13.3021M16.9233 13.2962V13.3021M16.9233 13.3021V13.308M16.9233 13.3021V13.308M16.9233 13.308V13.3139M16.9233 13.308V13.3139M16.9233 13.3139V13.3198M16.9233 13.3139V13.3198M16.9233 13.3198V13.3258M16.9233 13.3198V13.3258M16.9233 13.3258V13.3317M16.9233 13.3258V13.3317M16.9233 13.3317V13.3376M16.9233 13.3317V13.3376M16.9233 13.3376V13.3435M16.9233 13.3376V13.3435M16.9233 13.3435V13.3494M16.9233 13.3435V13.3494M16.9233 13.3494V13.3553M16.9233 13.3494V13.3553M16.9233 13.3553V13.3612M16.9233 13.3553V13.3612M16.9233 13.3612V13.3672M16.9233 13.3612V13.3672M16.9233 13.3672V13.3731M16.9233 13.3672V13.3731M16.9233 13.3731V13.379M16.9233 13.3731V13.379M16.9233 13.379V13.3849M16.9233 13.379V13.3849M16.9233 13.3849V13.3908M16.9233 13.3849V13.3908M16.9233 13.3908V13.3967M16.9233 13.3908V13.3967M16.9233 13.3967V13.4026M16.9233 13.3967V13.4026M16.9233 13.4026V13.4086M16.9233 13.4026V13.4086M16.9233 13.4086V13.4145M16.9233 13.4086V13.4145M16.9233 13.4145V13.4204M16.9233 13.4145V13.4204M16.9233 13.4204V13.4263M16.9233 13.4204V13.4263M16.9233 13.4263V13.4322M16.9233 13.4263V13.4322M16.9233 13.4322V13.4381M16.9233 13.4322V13.4381M16.9233 13.4381V13.444M16.9233 13.4381V13.444M16.9233 13.444V13.45M16.9233 13.444V13.45M16.9233 13.45V13.4559M16.9233 13.45V13.4559M16.9233 13.4559V13.4618M16.9233 13.4559V13.4618M16.9233 13.4618V13.4677M16.9233 13.4618V13.4677M16.9233 13.4677V13.4736M16.9233 13.4677V13.4736M16.9233 13.4736V13.4795M16.9233 13.4736V13.4795M16.9233 13.4795V13.4854M16.9233 13.4795V13.4854M16.9233 13.4854V13.4914M16.9233 13.4854V13.4914M16.9233 13.4914V13.4973M16.9233 13.4914V13.4973M16.9233 13.4973V13.5032M16.9233 13.4973V13.5032M16.9233 13.5032V13.5091M16.9233 13.5032V13.5091M16.9233 13.5091V13.515M16.9233 13.5091V13.515M16.9233 13.515V13.5209M16.9233 13.515V13.5209M16.9233 13.5209V13.5268M16.9233 13.5209V13.5268M16.9233 13.5268V13.5328M16.9233 13.5268V13.5328M16.9233 13.5328V13.5387M16.9233 13.5328V13.5387M16.9233 13.5387V13.5446M16.9233 13.5387V13.5446M16.9233 13.5446V13.5505M16.9233 13.5446V13.5505M16.9233 13.5505V13.5564M16.9233 13.5505V13.5564M16.9233 13.5564V13.5623M16.9233 13.5564V13.5623M16.9233 13.5623V13.5682M16.9233 13.5623V13.5682M16.9233 13.5682V13.5742M16.9233 13.5682V13.5742M16.9233 13.5742V13.5801M16.9233 13.5742V13.5801M16.9233 13.5801V13.586M16.9233 13.5801V13.586M16.9233 13.586V13.5919M16.9233 13.586V13.5919M16.9233 13.5919V13.5978M16.9233 13.5919V13.5978M16.9233 13.5978V13.6037M16.9233 13.5978V13.6037M16.9233 13.6037V13.6096M16.9233 13.6037V13.6096M16.9233 13.6096V13.6156M16.9233 13.6096V13.6156M16.9233 13.6156V13.6215M16.9233 13.6156V13.6215M16.9233 13.6215V13.6274M16.9233 13.6215V13.6274M16.9233 13.6274V13.6333M16.9233 13.6274V13.6333M16.9233 13.6333V13.6392M16.9233 13.6333V13.6392M16.9233 13.6392V13.6451M16.9233 13.6392V13.6451M16.9233 13.6451V13.651M16.9233 13.6451V13.651M16.9233 13.651V13.657M16.9233 13.651V13.657M16.9233 13.657V13.6629M16.9233 13.657V13.6629M16.9233 13.6629V13.6688M16.9233 13.6629V13.6688M16.9233 13.6688V13.6747M16.9233 13.6688V13.6747M16.9233 13.6747V13.6806M16.9233 13.6747V13.6806M16.9233 13.6806V13.6865M16.9233 13.6806V13.6865M16.9233 13.6865V13.6924M16.9233 13.6865V13.6924M16.9233 13.6924V13.6984M16.9233 13.6924V13.6984M16.9233 13.6984V13.7043M16.9233 13.6984V13.7043M16.9233 13.7043V13.7102M16.9233 13.7043V13.7102M16.9233 13.7102V13.7161M16.9233 13.7102V13.7161M16.9233 13.7161V13.722M16.9233 13.7161V13.722M16.9233 13.722V13.7279M16.9233 13.722V13.7279M16.9233 13.7279V13.7338M16.9233 13.7279V13.7338M16.9233 13.7338V13.7398M16.9233 13.7338V13.7398M16.9233 13.7398V13.7457M16.9233 13.7398V13.7457M16.9233 13.7457V13.7516M16.9233 13.7457V13.7516M16.9233 13.7516V13.7575M16.9233 13.7516V13.7575M16.9233 13.7575V13.7634M16.9233 13.7575V13.7634M16.9233 13.7634V13.7693M16.9233 13.7634V13.7693M16.9233 13.7693V13.7752M16.9233 13.7693V13.7752M16.9233 13.7752V13.7812M16.9233 13.7752V13.7812M16.9233 13.7812V13.7871M16.9233 13.7812V13.7871M16.9233 13.7871V13.793M16.9233 13.7871V13.793M16.9233 13.793V13.7989M16.9233 13.793V13.7989M16.9233 13.7989V13.8048M16.9233 13.7989V13.8048M16.9233 13.8048V13.8107M16.9233 13.8048V13.8107M16.9233 13.8107V13.8166M16.9233 13.8107V13.8166M16.9233 13.8166V13.8226M16.9233 13.8166V13.8226M16.9233 13.8226V13.8285M16.9233 13.8226V13.8285M16.9233 13.8285V13.8344M16.9233 13.8285V13.8344M16.9233 13.8344V13.8403M16.9233 13.8344V13.8403M16.9233 13.8403V13.8462M16.9233 13.8403V13.8462M16.9233 13.8462V13.8521M16.9233 13.8462V13.8521M16.9233 13.8521V13.858M16.9233 13.8521V13.858M16.9233 13.858V13.864M16.9233 13.858V13.864M16.9233 13.864V13.8699M16.9233 13.864V13.8699M16.9233 13.8699V13.8758M16.9233 13.8699V13.8758M16.9233 13.8758V13.8817M16.9233 13.8758V13.8817M16.9233 13.8817V13.8876M16.9233 13.8817V13.8876M16.9233 13.8876V13.8935M16.9233 13.8876V13.8935M16.9233 13.8935V13.8994M16.9233 13.8935V13.8994M16.9233 13.8994V13.9054M16.9233 13.8994V13.9054M16.9233 13.9054V13.9113M16.9233 13.9054V13.9113M16.9233 13.9113V13.9172M16.9233 13.9113V13.9172M16.9233 13.9172V13.9231M16.9233 13.9172V13.9231M16.9233 13.9231V13.929M16.9233 13.9231V13.929M16.9233 13.929V13.9349M16.9233 13.929V13.9349M16.9233 13.9349V13.9408M16.9233 13.9349V13.9408M16.9233 13.9408V13.9468M16.9233 13.9408V13.9468M16.9233 13.9468V13.9527M16.9233 13.9468V13.9527M16.9233 13.9527V13.9586M16.9233 13.9527V13.9586M16.9233 13.9586V13.9645M16.9233 13.9586V13.9645M16.9233 13.9645V13.9704M16.9233 13.9645V13.9704M16.9233 13.9704V13.9763M16.9233 13.9704V13.9763M16.9233 13.9763V13.9822M16.9233 13.9763V13.9822M16.9233 13.9822V13.9882M16.9233 13.9822V13.9882M16.9233 13.9882V13.9941M16.9233 13.9882V13.9941M16.9233 13.9941V14M16.9233 13.9941V14M16.9233 14V14.0059M16.9233 14V14.0059M16.9233 14.0059V14.0118M16.9233 14.0059V14.0118M16.9233 14.0118V14.0177M16.9233 14.0118V14.0177M16.9233 14.0177V14.0236M16.9233 14.0177V14.0236M16.9233 14.0236V14.0296V14.0236ZM8.21493 8.87272L8.21819 8.87268L8.21493 8.6227V8.87272ZM11.4741 6.26627L11.4836 6.2605L11.4926 6.25389L11.3449 6.0522L11.4741 6.26627ZM5.45796 9.89181H5.70796L8.35675 7.01748C8.3568 7.01748 8.35685 7.01748 8.35691 7.01748C6.67991 7.02924 5.45796 8.2167 5.45796 9.89181Z" fill="#1F69FF" stroke="#1F69FF" stroke-width="0.5"/>
</svg>
