<svg width="366" height="88" viewBox="0 0 366 88" fill="none" xmlns="http://www.w3.org/2000/svg">
<path d="M23.2528 62.1068C18.6238 62.1068 14.2018 61.4029 9.97849 59.9786C5.75523 58.5626 2.42631 56.7242 0 54.4718L3.21299 47.7063C5.52336 49.7351 8.47965 51.4079 12.0653 52.7411C15.6509 54.0743 19.3773 54.7368 23.2611 54.7368C26.7887 54.7368 29.6539 54.331 31.8484 53.5195C34.0428 52.708 35.6659 51.5983 36.7093 50.1823C37.7526 48.7663 38.2743 47.1598 38.2743 45.3711C38.2743 43.2926 37.5953 41.6116 36.2372 40.3363C34.8792 39.061 33.1153 38.0342 30.9457 37.2558C28.7762 36.4774 26.3912 35.7984 23.791 35.2187C21.1908 34.639 18.5741 33.96 15.9407 33.1816C13.3074 32.4032 10.906 31.4012 8.73636 30.1922C6.56676 28.9832 4.81949 27.3436 3.48626 25.2899C2.15303 23.2362 1.49056 20.5946 1.49056 17.3485C1.49056 14.2266 2.31865 11.3448 3.96655 8.71979C5.61445 6.08647 8.15669 3.97484 11.6015 2.3849C15.0381 0.794968 19.427 0 24.7433 0C28.271 0 31.7738 0.463731 35.2435 1.39119C38.7132 2.31865 41.7192 3.6436 44.2697 5.38259L41.4045 12.322C38.8043 10.583 36.0551 9.33258 33.165 8.5459C30.275 7.76749 27.4678 7.37829 24.7516 7.37829C21.3399 7.37829 18.5327 7.8089 16.3382 8.67839C14.1355 9.54789 12.5373 10.7072 11.5187 12.1481C10.5085 13.5972 10.0033 15.212 10.0033 17.009C10.0033 19.1455 10.6824 20.8596 12.0404 22.1266C13.3985 23.4018 15.1623 24.4121 17.3319 25.1657C19.5015 25.9192 21.8864 26.5983 24.4866 27.2028C27.0868 27.8073 29.7036 28.4863 32.3369 29.2399C34.9703 29.9934 37.3717 30.9789 39.5413 32.1879C41.7109 33.4052 43.4582 35.02 44.7914 37.0488C46.1246 39.0776 46.7871 41.6778 46.7871 44.8577C46.7871 47.9216 45.9507 50.7702 44.2697 53.4036C42.5887 56.0369 40.0051 58.1485 36.5022 59.7385C32.9911 61.3118 28.5774 62.1068 23.2528 62.1068Z" fill="white"/>
<path d="M64.3426 53.864H99.7435V61.4162H55.6725V0.675781H98.5345V8.22797H64.3509V53.864H64.3426ZM63.5642 26.8766H94.7998V34.2549H63.5642V26.8766Z" fill="white"/>
<path d="M117.324 53.864H152.725V61.4162H108.654V0.675781H151.516V8.22797H117.332V53.864H117.324ZM116.537 26.8766H147.773V34.2549H116.537V26.8766Z" fill="white"/>
<path d="M161.618 61.408V0.675781H170.297V61.408H161.618ZM169.253 46.7425L168.823 36.1595L203.271 0.675781H213.159L186.519 28.7895L181.658 34.172L169.253 46.7425ZM204.654 61.408L179.754 32.4331L185.567 26.0154L214.807 61.4162H204.654V61.408Z" fill="white"/>
<path d="M223.51 0.730469L197.4 28.0078L224.992 61.4212C224.992 61.4212 366.314 61.4212 365.999 61.4212C365.685 61.4212 365.999 0.73875 365.999 0.73875H223.51V0.730469Z" fill="#FEC000"/>
<path d="M229.265 56.2678L252.294 5.88672H257.544L280.574 56.2678H274.959L253.801 8.98378H255.963L234.805 56.2678H229.265ZM238.333 42.8113L239.914 38.4969H269.204L270.786 42.8113H238.333Z" fill="white"/>
<path d="M296.191 56.2678V10.4909H278.487V5.88672H319.221V10.4909H301.516V56.2595H296.191V56.2678Z" fill="white"/>
<path d="M340.817 56.6949C337.074 56.6949 333.489 56.0821 330.06 54.8565C326.632 53.631 323.982 52.0576 322.111 50.1447L324.197 46.0457C325.97 47.7764 328.363 49.2255 331.36 50.4014C334.358 51.5773 337.513 52.1652 340.826 52.1652C343.989 52.1652 346.572 51.7678 348.56 50.9811C350.547 50.1861 352.013 49.1179 352.949 47.7764C353.885 46.4349 354.357 44.9443 354.357 43.313C354.357 41.3421 353.793 39.7604 352.667 38.5597C351.541 37.359 350.067 36.415 348.245 35.7194C346.423 35.0238 344.403 34.411 342.2 33.881C339.989 33.351 337.786 32.7879 335.575 32.1917C333.364 31.5955 331.344 30.7922 329.497 29.782C327.651 28.7717 326.16 27.4385 325.034 25.7906C323.908 24.1344 323.345 21.9648 323.345 19.2735C323.345 16.7809 324.007 14.4871 325.324 12.4003C326.64 10.3135 328.669 8.63253 331.402 7.36555C334.135 6.09857 337.637 5.46094 341.91 5.46094C344.742 5.46094 347.55 5.85842 350.332 6.64511C353.114 7.44007 355.516 8.52487 357.528 9.91607L355.731 14.1642C353.57 12.7233 351.276 11.6716 348.858 11.0009C346.432 10.3301 344.096 9.99059 341.844 9.99059C338.822 9.99059 336.329 10.3964 334.358 11.2162C332.387 12.036 330.938 13.1208 330.002 14.4871C329.067 15.8535 328.595 17.402 328.595 19.1327C328.595 21.1036 329.158 22.6852 330.284 23.886C331.41 25.0867 332.901 26.0224 334.747 26.6932C336.594 27.3639 338.623 27.9684 340.826 28.4901C343.028 29.0201 345.223 29.5915 347.409 30.2208C349.595 30.8419 351.607 31.6452 353.454 32.6306C355.301 33.616 356.791 34.9244 357.917 36.5557C359.044 38.1871 359.607 40.3235 359.607 42.9652C359.607 45.4163 358.936 47.677 357.594 49.7638C356.253 51.8506 354.199 53.5316 351.442 54.7986C348.676 56.0573 345.132 56.6949 340.817 56.6949Z" fill="white"/>
<path d="M65.8912 83.7276L71.4063 71.5547H73.1287L78.6603 83.7276H76.8302L71.9114 72.5236H72.607L67.6881 83.7276H65.8912ZM68.2347 80.6885L68.7067 79.2973H75.5633L76.0684 80.6885H68.2347Z" fill="#8EAADA"/>
<path d="M80.2171 87.1117V74.5164H81.8154V77.0007L81.7077 79.1371L81.8816 81.2736V87.1034H80.2171V87.1117ZM85.1112 83.8407C84.3493 83.8407 83.6454 83.6668 83.0161 83.3107C82.3867 82.9546 81.8816 82.433 81.5007 81.7374C81.1198 81.0418 80.9376 80.1723 80.9376 79.1289C80.9376 78.0855 81.1198 77.216 81.4841 76.5204C81.8485 75.8248 82.3453 75.3031 82.983 74.9553C83.6123 74.6075 84.3245 74.4336 85.1112 74.4336C86.0138 74.4336 86.817 74.6323 87.5126 75.0215C88.2082 75.419 88.7548 75.9656 89.1688 76.6694C89.5746 77.3733 89.7816 78.1931 89.7816 79.1289C89.7816 80.0646 89.5746 80.8927 89.1688 81.5966C88.763 82.3005 88.2082 82.8553 87.5126 83.2528C86.8088 83.642 86.0138 83.8407 85.1112 83.8407ZM84.9704 82.375C85.5583 82.375 86.0966 82.2425 86.5603 81.9775C87.0323 81.7125 87.405 81.3316 87.67 80.8347C87.9432 80.3379 88.0757 79.7665 88.0757 79.1206C88.0757 78.4581 87.9432 77.8867 87.67 77.4064C87.3967 76.9261 87.024 76.5535 86.5603 76.2885C86.0883 76.0235 85.5583 75.891 84.9704 75.891C84.3907 75.891 83.869 76.0235 83.397 76.2885C82.925 76.5535 82.5524 76.9261 82.2874 77.4064C82.0141 77.8867 81.8816 78.4581 81.8816 79.1206C81.8816 79.7665 82.0141 80.3379 82.2874 80.8347C82.5606 81.3233 82.9333 81.7042 83.397 81.9775C83.8607 82.2425 84.3907 82.375 84.9704 82.375Z" fill="#8EAADA"/>
<path d="M92.0837 87.1117V74.5164H93.6819V77.0007L93.5742 79.1371L93.7481 81.2736V87.1034H92.0837V87.1117ZM96.9694 83.8407C96.2076 83.8407 95.5037 83.6668 94.8743 83.3107C94.245 82.9546 93.7399 82.433 93.3589 81.7374C92.978 81.0418 92.7958 80.1723 92.7958 79.1289C92.7958 78.0855 92.978 77.216 93.3424 76.5204C93.7067 75.8248 94.2036 75.3031 94.8412 74.9553C95.4706 74.6075 96.1827 74.4336 96.9694 74.4336C97.872 74.4336 98.6753 74.6323 99.3709 75.0215C100.066 75.419 100.613 75.9656 101.027 76.6694C101.433 77.3733 101.64 78.1931 101.64 79.1289C101.64 80.0646 101.433 80.8927 101.027 81.5966C100.621 82.3005 100.066 82.8553 99.3709 83.2528C98.6753 83.642 97.872 83.8407 96.9694 83.8407ZM96.8286 82.375C97.4166 82.375 97.9548 82.2425 98.4186 81.9775C98.8906 81.7125 99.2632 81.3316 99.5282 80.8347C99.8015 80.3379 99.934 79.7665 99.934 79.1206C99.934 78.4581 99.8015 77.8867 99.5282 77.4064C99.2549 76.9261 98.8823 76.5535 98.4186 76.2885C97.9466 76.0235 97.4166 75.891 96.8286 75.891C96.249 75.891 95.7273 76.0235 95.2553 76.2885C94.7832 76.5535 94.4106 76.9261 94.1456 77.4064C93.8723 77.8867 93.7399 78.4581 93.7399 79.1206C93.7399 79.7665 93.8723 80.3379 94.1456 80.8347C94.4189 81.3233 94.7915 81.7042 95.2553 81.9775C95.7273 82.2425 96.249 82.375 96.8286 82.375Z" fill="#8EAADA"/>
<path d="M103.942 83.7263V70.8164H105.615V83.7263H103.942Z" fill="#8EAADA"/>
<path d="M109.631 72.7404C109.308 72.7404 109.035 72.6327 108.819 72.4257C108.604 72.2187 108.496 71.962 108.496 71.6639C108.496 71.3492 108.604 71.0925 108.819 70.8772C109.035 70.6702 109.3 70.5625 109.631 70.5625C109.954 70.5625 110.227 70.6619 110.442 70.8689C110.658 71.0759 110.765 71.3243 110.765 71.6225C110.765 71.9371 110.658 72.2021 110.451 72.4174C110.244 72.6327 109.97 72.7404 109.631 72.7404ZM108.795 83.7291V74.5125H110.467V83.7291H108.795Z" fill="#8EAADA"/>
<path d="M117.672 83.8412C116.736 83.8412 115.891 83.6341 115.154 83.2284C114.417 82.8226 113.838 82.2678 113.424 81.5556C113.01 80.8518 112.794 80.0402 112.794 79.1211C112.794 78.2019 113.001 77.3903 113.424 76.6865C113.838 75.9826 114.417 75.4278 115.154 75.022C115.891 74.6245 116.728 74.4258 117.672 74.4258C118.508 74.4258 119.253 74.5914 119.908 74.9226C120.562 75.2539 121.067 75.7424 121.431 76.3884L120.164 77.2082C119.866 76.7527 119.493 76.4215 119.063 76.2062C118.624 75.9909 118.16 75.8832 117.663 75.8832C117.059 75.8832 116.521 76.0157 116.049 76.2807C115.577 76.5457 115.196 76.9183 114.914 77.3986C114.633 77.8789 114.5 78.4503 114.5 79.1128C114.5 79.7752 114.641 80.3466 114.914 80.8352C115.196 81.3238 115.568 81.6964 116.049 81.9697C116.529 82.243 117.067 82.3672 117.663 82.3672C118.16 82.3672 118.632 82.2595 119.063 82.0442C119.502 81.8289 119.866 81.4977 120.164 81.0422L121.431 81.8455C121.075 82.4831 120.562 82.9717 119.908 83.3195C119.253 83.6673 118.5 83.8412 117.672 83.8412Z" fill="#8EAADA"/>
<path d="M126.276 83.8363C125.588 83.8363 124.992 83.7204 124.479 83.4885C123.965 83.2567 123.568 82.9337 123.286 82.5197C123.005 82.1056 122.872 81.6419 122.872 81.1202C122.872 80.6233 122.988 80.1679 123.228 79.7621C123.468 79.3564 123.858 79.0334 124.396 78.785C124.934 78.5448 125.663 78.4206 126.582 78.4206H129.505V79.6213H126.656C125.82 79.6213 125.257 79.7621 124.967 80.0354C124.677 80.3169 124.528 80.6482 124.528 81.0457C124.528 81.5011 124.71 81.8572 125.067 82.1305C125.423 82.4037 125.928 82.5362 126.565 82.5362C127.195 82.5362 127.741 82.3954 128.213 82.1222C128.685 81.8489 129.025 81.4349 129.232 80.9049L129.563 82.0559C129.339 82.6025 128.95 83.0331 128.395 83.356C127.824 83.679 127.128 83.8363 126.276 83.8363ZM129.306 83.7287V81.7827L129.215 81.4183V78.0977C129.215 77.3938 129.008 76.839 128.594 76.458C128.18 76.0688 127.567 75.8784 126.739 75.8784C126.193 75.8784 125.663 75.9695 125.141 76.1516C124.619 76.3338 124.18 76.574 123.816 76.8721L123.121 75.6217C123.593 75.2407 124.164 74.9426 124.835 74.7439C125.497 74.5369 126.201 74.4375 126.93 74.4375C128.197 74.4375 129.166 74.7439 129.853 75.3567C130.54 75.9695 130.88 76.9135 130.88 78.1722V83.737H129.306V83.7287Z" fill="#8EAADA"/>
<path d="M138.904 74.4336C139.657 74.4336 140.32 74.5744 140.9 74.8642C141.471 75.154 141.926 75.5929 142.249 76.1891C142.572 76.7771 142.738 77.5307 142.738 78.4333V83.7413H141.065V78.6237C141.065 77.7294 140.85 77.0586 140.411 76.6032C139.972 76.1477 139.368 75.9242 138.573 75.9242C137.985 75.9242 137.463 76.0401 137.024 76.272C136.585 76.5038 136.246 76.8433 136.006 77.2988C135.765 77.7542 135.65 78.3173 135.65 78.9881V83.7331H133.977V74.5164H135.575V77.0007L135.318 76.3382C135.616 75.7337 136.08 75.27 136.709 74.9305C137.339 74.5992 138.076 74.4336 138.904 74.4336Z" fill="#8EAADA"/>
<path d="M144.51 75.8908V74.5162H150.39V75.8908H144.51ZM148.998 83.8405C148.071 83.8405 147.35 83.592 146.845 83.0952C146.332 82.5983 146.083 81.8862 146.083 80.9587V72.5039H147.756V80.8842C147.756 81.381 147.88 81.762 148.129 82.0352C148.377 82.3002 148.733 82.4327 149.197 82.4327C149.719 82.4327 150.158 82.2919 150.505 81.9938L151.027 83.1946C150.77 83.4181 150.464 83.5755 150.116 83.6831C149.744 83.7908 149.379 83.8405 148.998 83.8405Z" fill="#8EAADA"/>
<path d="M160.368 83.732V73.0662H156.194V71.5508H166.264V73.0662H162.09V83.732H160.368Z" fill="#8EAADA"/>
<path d="M167.697 83.7331V74.5164H169.295V77.0255L169.138 76.3962C169.394 75.7585 169.825 75.27 170.421 74.9387C171.026 74.5992 171.763 74.4336 172.649 74.4336V76.0484C172.582 76.0401 172.516 76.0318 172.45 76.0318C172.384 76.0318 172.326 76.0318 172.268 76.0318C171.373 76.0318 170.669 76.2968 170.148 76.8351C169.626 77.365 169.361 78.1434 169.361 79.1454V83.7331H167.697Z" fill="#8EAADA"/>
<path d="M176.723 83.8363C176.035 83.8363 175.439 83.7204 174.926 83.4885C174.412 83.2567 174.015 82.9337 173.733 82.5197C173.452 82.1056 173.319 81.6419 173.319 81.1202C173.319 80.6233 173.435 80.1679 173.675 79.7621C173.916 79.3564 174.305 79.0334 174.843 78.785C175.381 78.5448 176.11 78.4206 177.029 78.4206H179.952V79.6213H177.104C176.267 79.6213 175.704 79.7621 175.414 80.0354C175.125 80.3169 174.976 80.6482 174.976 81.0457C174.976 81.5011 175.158 81.8572 175.514 82.1305C175.87 82.4037 176.375 82.5362 177.013 82.5362C177.642 82.5362 178.189 82.3954 178.661 82.1222C179.133 81.8489 179.472 81.4349 179.679 80.9049L180.01 82.0559C179.787 82.6025 179.398 83.0331 178.843 83.356C178.271 83.679 177.567 83.8363 176.723 83.8363ZM179.745 83.7287V81.7827L179.654 81.4183V78.0977C179.654 77.3938 179.447 76.839 179.033 76.458C178.619 76.0688 178.006 75.8784 177.178 75.8784C176.632 75.8784 176.102 75.9695 175.58 76.1516C175.058 76.3338 174.619 76.574 174.255 76.8721L173.56 75.6217C174.032 75.2407 174.603 74.9426 175.274 74.7439C175.936 74.5369 176.64 74.4375 177.369 74.4375C178.636 74.4375 179.605 74.7439 180.292 75.3567C180.979 75.9695 181.319 76.9135 181.319 78.1722V83.737H179.745V83.7287Z" fill="#8EAADA"/>
<path d="M188.44 83.8412C187.505 83.8412 186.66 83.6341 185.923 83.2284C185.186 82.8226 184.606 82.2678 184.192 81.5556C183.778 80.8518 183.563 80.0402 183.563 79.1211C183.563 78.2019 183.77 77.3903 184.192 76.6865C184.606 75.9826 185.186 75.4278 185.923 75.022C186.66 74.6245 187.496 74.4258 188.44 74.4258C189.277 74.4258 190.022 74.5914 190.676 74.9226C191.33 75.2539 191.835 75.7424 192.2 76.3884L190.933 77.2082C190.635 76.7527 190.262 76.4215 189.831 76.2062C189.393 75.9909 188.929 75.8832 188.432 75.8832C187.828 75.8832 187.289 76.0157 186.817 76.2807C186.345 76.5457 185.964 76.9183 185.683 77.3986C185.401 77.8789 185.269 78.4503 185.269 79.1128C185.269 79.7752 185.409 80.3466 185.683 80.8352C185.964 81.3238 186.337 81.6964 186.817 81.9697C187.298 82.243 187.836 82.3672 188.432 82.3672C188.929 82.3672 189.401 82.2595 189.831 82.0442C190.27 81.8289 190.635 81.4977 190.933 81.0422L192.2 81.8455C191.844 82.4831 191.33 82.9717 190.676 83.3195C190.022 83.6673 189.277 83.8412 188.44 83.8412Z" fill="#8EAADA"/>
<path d="M194.237 83.7263V70.8164H195.91V83.7263H194.237ZM195.595 81.4988L195.628 79.3623L200.936 74.5097H202.957L198.882 78.5094L197.98 79.2712L195.595 81.4988ZM201.284 83.7263L197.665 79.2381L198.742 77.8966L203.329 83.7263H201.284Z" fill="#8EAADA"/>
<path d="M205.789 72.7404C205.466 72.7404 205.193 72.6327 204.977 72.4257C204.762 72.2187 204.654 71.962 204.654 71.6639C204.654 71.3492 204.762 71.0925 204.977 70.8772C205.193 70.6702 205.458 70.5625 205.789 70.5625C206.112 70.5625 206.385 70.6619 206.6 70.8689C206.816 71.0759 206.923 71.3243 206.923 71.6225C206.923 71.9371 206.816 72.2021 206.609 72.4174C206.393 72.6327 206.12 72.7404 205.789 72.7404ZM204.952 83.7291V74.5125H206.625V83.7291H204.952Z" fill="#8EAADA"/>
<path d="M214.724 74.4336C215.477 74.4336 216.14 74.5744 216.72 74.8642C217.291 75.154 217.746 75.5929 218.069 76.1891C218.392 76.7771 218.558 77.5307 218.558 78.4333V83.7413H216.885V78.6237C216.885 77.7294 216.67 77.0586 216.231 76.6032C215.792 76.1477 215.188 75.9242 214.393 75.9242C213.805 75.9242 213.283 76.0401 212.844 76.272C212.405 76.5038 212.066 76.8433 211.826 77.2988C211.585 77.7542 211.469 78.3173 211.469 78.9881V83.7331H209.797V74.5164H211.395V77.0007L211.138 76.3382C211.436 75.7337 211.9 75.27 212.529 74.9305C213.159 74.5992 213.896 74.4336 214.724 74.4336Z" fill="#8EAADA"/>
<path d="M225.473 83.3521C224.578 83.3521 223.783 83.1617 223.079 82.789C222.375 82.4081 221.821 81.8864 221.407 81.2157C220.993 80.5449 220.786 79.7665 220.786 78.8887C220.786 77.9944 220.993 77.216 221.407 76.5452C221.821 75.8828 222.375 75.3611 223.079 74.9884C223.783 74.6158 224.578 74.4336 225.473 74.4336C226.259 74.4336 226.98 74.5909 227.626 74.9139C228.271 75.2368 228.793 75.7254 229.182 76.3879C229.572 77.0504 229.762 77.8867 229.762 78.8887C229.762 79.8824 229.572 80.7188 229.182 81.373C228.793 82.0355 228.271 82.5323 227.626 82.8636C226.98 83.1865 226.267 83.3521 225.473 83.3521ZM225.688 87.211C224.843 87.211 224.023 87.0951 223.228 86.855C222.433 86.6148 221.787 86.2753 221.291 85.8364L222.094 84.5529C222.525 84.9255 223.054 85.2153 223.676 85.4306C224.305 85.6459 224.959 85.7536 225.638 85.7536C226.731 85.7536 227.526 85.4969 228.04 84.9917C228.553 84.4783 228.801 83.7082 228.801 82.6565V80.7105L228.975 78.8804L228.884 77.0338V74.5081H230.466V82.4744C230.466 84.0974 230.06 85.2899 229.249 86.06C228.437 86.8301 227.253 87.211 225.688 87.211ZM225.663 81.8947C226.276 81.8947 226.822 81.7705 227.294 81.5138C227.766 81.2571 228.147 80.901 228.412 80.4538C228.677 80.0066 228.818 79.4767 228.818 78.8887C228.818 78.3008 228.677 77.7791 228.412 77.3236C228.147 76.8682 227.766 76.5204 227.294 76.272C226.822 76.0235 226.276 75.8993 225.663 75.8993C225.05 75.8993 224.504 76.0235 224.015 76.272C223.526 76.5204 223.154 76.8682 222.881 77.3236C222.607 77.7791 222.475 78.3008 222.475 78.8887C222.475 79.4767 222.607 79.9984 222.881 80.4538C223.154 80.9093 223.526 81.2571 224.015 81.5138C224.504 81.7705 225.05 81.8947 225.663 81.8947Z" fill="#8EAADA"/>
<path d="M242.125 83.8681C241.198 83.8681 240.312 83.7273 239.467 83.4458C238.623 83.1642 237.952 82.7916 237.463 82.3444L238.109 80.9863C238.573 81.3921 239.161 81.7316 239.881 81.9966C240.602 82.2616 241.347 82.3941 242.125 82.3941C242.829 82.3941 243.409 82.3113 243.848 82.1539C244.287 81.9883 244.61 81.7647 244.825 81.4832C245.032 81.2016 245.14 80.8787 245.14 80.5143C245.14 80.1003 245.007 79.7607 244.734 79.504C244.461 79.2473 244.105 79.0403 243.674 78.883C243.235 78.7256 242.763 78.5931 242.241 78.4772C241.72 78.3613 241.198 78.2288 240.668 78.0714C240.138 77.9141 239.658 77.7154 239.227 77.4752C238.788 77.2351 238.44 76.9038 238.175 76.4898C237.91 76.0757 237.778 75.5458 237.778 74.8999C237.778 74.2705 237.944 73.6991 238.275 73.1691C238.606 72.6392 239.111 72.2168 239.807 71.9022C240.494 71.5875 241.372 71.4219 242.44 71.4219C243.144 71.4219 243.848 71.513 244.543 71.7034C245.239 71.8856 245.844 72.1589 246.349 72.5067L245.777 73.8979C245.256 73.5501 244.701 73.3016 244.121 73.1443C243.541 72.987 242.978 72.9124 242.432 72.9124C241.744 72.9124 241.181 72.9952 240.742 73.1774C240.304 73.3513 239.981 73.5832 239.774 73.873C239.567 74.1629 239.467 74.4858 239.467 74.8502C239.467 75.2808 239.608 75.6203 239.873 75.877C240.146 76.1337 240.502 76.3325 240.933 76.4898C241.372 76.6388 241.844 76.7796 242.366 76.8956C242.887 77.0198 243.409 77.1523 243.939 77.3013C244.469 77.4504 244.949 77.6491 245.38 77.8893C245.819 78.1294 246.166 78.4606 246.431 78.8664C246.696 79.2722 246.829 79.7939 246.829 80.4315C246.829 81.0443 246.663 81.6157 246.324 82.1457C245.984 82.6756 245.471 83.098 244.767 83.4126C244.071 83.7107 243.185 83.8681 242.125 83.8681Z" fill="#8EAADA"/>
<path d="M249.355 87.2063C248.916 87.2063 248.485 87.1318 248.071 86.991C247.657 86.842 247.293 86.635 246.995 86.3534L247.707 85.103C247.939 85.3266 248.195 85.4922 248.469 85.6081C248.75 85.7241 249.04 85.782 249.355 85.782C249.76 85.782 250.1 85.6744 250.365 85.4674C250.63 85.2603 250.878 84.8877 251.11 84.3577L251.682 83.0907L251.855 82.8837L255.474 74.52H257.114L252.642 84.6641C252.377 85.31 252.079 85.8234 251.748 86.1961C251.417 86.5687 251.052 86.8337 250.663 86.991C250.266 87.1318 249.835 87.2063 249.355 87.2063ZM251.549 84.0265L247.342 74.5117H249.081L252.667 82.7181L251.549 84.0265Z" fill="#8EAADA"/>
<path d="M261.205 83.8359C260.443 83.8359 259.714 83.7282 259.018 83.5212C258.323 83.3142 257.785 83.0575 257.395 82.7593L258.091 81.4344C258.488 81.6994 258.969 81.923 259.548 82.1134C260.128 82.2956 260.716 82.395 261.321 82.395C262.099 82.395 262.654 82.2873 263.002 82.0637C263.341 81.8402 263.515 81.5338 263.515 81.1446C263.515 80.8547 263.407 80.6311 263.2 80.4655C262.993 80.2999 262.72 80.184 262.372 80.1012C262.033 80.0184 261.652 79.9438 261.229 79.8859C260.815 79.8196 260.393 79.7451 259.979 79.6457C259.565 79.5463 259.176 79.4056 258.828 79.2317C258.48 79.0495 258.199 78.8011 257.992 78.4864C257.785 78.1634 257.677 77.7411 257.677 77.2111C257.677 76.6563 257.834 76.1677 258.149 75.7537C258.464 75.3397 258.903 75.0167 259.482 74.7848C260.054 74.5612 260.741 74.4453 261.528 74.4453C262.132 74.4453 262.745 74.5198 263.366 74.6606C263.987 74.8014 264.492 75.0084 264.89 75.2817L264.177 76.6066C263.763 76.3251 263.325 76.1346 262.869 76.0352C262.414 75.9276 261.966 75.8779 261.511 75.8779C260.782 75.8779 260.236 75.9938 259.88 76.234C259.524 76.4741 259.341 76.7805 259.341 77.1449C259.341 77.4596 259.449 77.6997 259.664 77.8653C259.88 78.0309 260.153 78.1634 260.501 78.2545C260.84 78.3456 261.221 78.4284 261.643 78.4864C262.058 78.5526 262.48 78.6272 262.894 78.7265C263.308 78.8259 263.689 78.9584 264.037 79.1323C264.384 79.3062 264.658 79.5464 264.873 79.861C265.088 80.1757 265.196 80.5897 265.196 81.1114C265.196 81.6663 265.03 82.1466 264.707 82.5523C264.384 82.9581 263.921 83.2728 263.333 83.5046C262.737 83.7199 262.024 83.8359 261.205 83.8359Z" fill="#8EAADA"/>
<path d="M265.95 75.8908V74.5162H271.829V75.8908H265.95ZM270.438 83.8405C269.51 83.8405 268.79 83.592 268.285 83.0952C267.771 82.5983 267.523 81.8862 267.523 80.9587V72.5039H269.196V80.8842C269.196 81.381 269.32 81.762 269.568 82.0352C269.817 82.3002 270.173 82.4327 270.637 82.4327C271.158 82.4327 271.597 82.2919 271.945 81.9938L272.467 83.1946C272.21 83.4181 271.904 83.5755 271.556 83.6831C271.191 83.7908 270.819 83.8405 270.438 83.8405Z" fill="#8EAADA"/>
<path d="M278.263 83.8412C277.278 83.8412 276.408 83.6341 275.663 83.2284C274.918 82.8226 274.338 82.2678 273.924 81.5556C273.51 80.8518 273.303 80.0402 273.303 79.1211C273.303 78.2019 273.502 77.3903 273.899 76.6865C274.297 75.9826 274.852 75.4278 275.555 75.022C276.259 74.6245 277.046 74.4258 277.932 74.4258C278.826 74.4258 279.613 74.6245 280.3 75.0137C280.988 75.4112 281.518 75.9577 281.907 76.6782C282.296 77.3903 282.487 78.2267 282.487 79.1707C282.487 79.237 282.487 79.3198 282.478 79.4109C282.47 79.502 282.462 79.5931 282.453 79.6676H274.611V78.4669H281.584L280.905 78.8809C280.913 78.293 280.797 77.763 280.541 77.2993C280.284 76.8355 279.936 76.4712 279.489 76.2145C279.042 75.9577 278.52 75.8253 277.932 75.8253C277.352 75.8253 276.839 75.9577 276.383 76.2145C275.928 76.4794 275.58 76.8438 275.324 77.3075C275.067 77.7795 274.943 78.3095 274.943 78.914V79.1956C274.943 79.8084 275.083 80.3549 275.365 80.8352C275.647 81.3155 276.044 81.6881 276.557 81.9614C277.071 82.2264 277.65 82.3589 278.313 82.3589C278.859 82.3589 279.356 82.2678 279.804 82.0773C280.251 81.8952 280.64 81.6136 280.979 81.241L281.899 82.3175C281.485 82.8061 280.963 83.1787 280.342 83.4271C279.721 83.7087 279.033 83.8412 278.263 83.8412Z" fill="#8EAADA"/>
<path d="M296.34 74.4306C297.086 74.4306 297.74 74.5714 298.303 74.8612C298.874 75.1511 299.313 75.59 299.636 76.1862C299.951 76.7741 300.117 77.5277 300.117 78.4303V83.7384H298.444V78.6208C298.444 77.7264 298.237 77.0557 297.814 76.6002C297.4 76.1448 296.812 75.9212 296.059 75.9212C295.504 75.9212 295.016 76.0371 294.601 76.269C294.187 76.5008 293.864 76.8404 293.633 77.2958C293.409 77.7513 293.293 78.3144 293.293 78.9851V83.7301H291.62V78.6125C291.62 77.7181 291.413 77.0474 290.999 76.5919C290.585 76.1365 289.997 75.9129 289.235 75.9129C288.689 75.9129 288.209 76.0288 287.795 76.2607C287.381 76.4926 287.049 76.8321 286.817 77.2875C286.586 77.743 286.47 78.3061 286.47 78.9768V83.7218H284.797V74.5052H286.395V76.9563L286.138 76.3269C286.428 75.7224 286.875 75.2587 287.48 74.9192C288.084 74.5797 288.788 74.4141 289.583 74.4141C290.461 74.4141 291.223 74.6294 291.861 75.0683C292.498 75.5071 292.912 76.1613 293.111 77.0391L292.432 76.7576C292.713 76.0537 293.194 75.4823 293.889 75.0517C294.601 74.6376 295.413 74.4306 296.34 74.4306Z" fill="#8EAADA"/>
</svg>
