<svg width="199" height="48" viewBox="0 0 199 48" fill="none" xmlns="http://www.w3.org/2000/svg">
<path d="M12.6148 33.6934C10.1035 33.6934 7.70455 33.3115 5.4134 32.5388C3.12225 31.7706 1.31629 30.7733 0 29.5513L1.74307 25.881C2.99646 26.9817 4.60027 27.8891 6.5455 28.6124C8.49073 29.3357 10.5123 29.6951 12.6193 29.6951C14.5331 29.6951 16.0875 29.475 17.278 29.0347C18.4685 28.5944 19.349 27.9925 19.915 27.2243C20.4811 26.456 20.7641 25.5845 20.7641 24.6141C20.7641 23.4865 20.3957 22.5746 19.659 21.8827C18.9222 21.1909 17.9653 20.6338 16.7883 20.2115C15.6113 19.7892 14.3174 19.4209 12.9068 19.1064C11.4962 18.7919 10.0766 18.4235 8.64797 18.0013C7.21937 17.579 5.91656 17.0354 4.73954 16.3795C3.56251 15.7236 2.61461 14.8341 1.89132 13.7199C1.16804 12.6058 0.808641 11.1727 0.808641 9.41168C0.808641 7.71803 1.25789 6.15466 2.15188 4.73055C3.04588 3.30195 4.42506 2.15638 6.29392 1.29383C8.15829 0.431276 10.5393 0 13.4234 0C15.3372 0 17.2375 0.251577 19.1199 0.754732C21.0022 1.25789 22.633 1.97668 24.0166 2.92009L22.4623 6.68477C21.0516 5.74135 19.5601 5.06299 17.9923 4.63621C16.4244 4.21392 14.9015 4.00277 13.4279 4.00277C11.577 4.00277 10.0541 4.23638 8.86361 4.70809C7.66861 5.1798 6.80157 5.80874 6.249 6.59043C5.70092 7.37661 5.42688 8.25263 5.42688 9.22749C5.42688 10.3865 5.79526 11.3165 6.53202 12.0038C7.26878 12.6957 8.22568 13.2437 9.4027 13.6526C10.5797 14.0614 11.8735 14.4298 13.2842 14.7577C14.6948 15.0857 16.1144 15.454 17.543 15.8628C18.9716 16.2717 20.2744 16.8063 21.4515 17.4622C22.6285 18.1225 23.5764 18.9986 24.2997 20.0992C25.0229 21.1999 25.3823 22.6105 25.3823 24.3356C25.3823 25.9978 24.9286 27.5432 24.0166 28.9718C23.1047 30.4004 21.703 31.546 19.8027 32.4085C17.8979 33.2621 15.5034 33.6934 12.6148 33.6934Z" fill="#203964"/>
<path d="M34.9062 29.2234H54.1115V33.3205H30.2026V0.368408H53.4556V4.46552H34.9107V29.2234H34.9062ZM34.4839 14.5825H51.4295V18.5853H34.4839V14.5825Z" fill="#203964"/>
<path d="M63.6489 29.2234H82.8541V33.3205H58.9453V0.368408H82.1982V4.46552H63.6534V29.2234H63.6489ZM63.2221 14.5825H80.1677V18.5853H63.2221V14.5825Z" fill="#203964"/>
<path d="M87.6792 33.316V0.368408H92.3873V33.316H87.6792ZM91.8212 25.3599L91.5876 19.6186L110.276 0.368408H115.64L101.188 15.6203L98.5509 18.5404L91.8212 25.3599ZM111.026 33.316L97.5177 17.597L100.671 14.1153L116.534 33.3205H111.026V33.316Z" fill="#203964"/>
<path d="M121.256 0.395386L107.091 15.1935L122.06 33.3206C122.06 33.3206 198.728 33.3206 198.557 33.3206C198.386 33.3206 198.557 0.399878 198.557 0.399878H121.256V0.395386Z" fill="#FEC000"/>
<path d="M124.378 30.5216L136.871 3.18958H139.72L152.213 30.5216H149.167L137.689 4.86975H138.862L127.383 30.5216H124.378ZM129.297 23.2214L130.155 20.8808H146.045L146.903 23.2214H129.297Z" fill="white"/>
<path d="M160.686 30.5216V5.68738H151.081V3.18958H173.179V5.68738H163.575V30.5172H160.686V30.5216Z" fill="white"/>
<path d="M184.896 30.7552C182.865 30.7552 180.92 30.4228 179.06 29.7579C177.2 29.093 175.763 28.2395 174.748 27.2017L175.88 24.9779C176.841 25.9169 178.139 26.7031 179.766 27.341C181.392 27.9789 183.104 28.2979 184.9 28.2979C186.617 28.2979 188.018 28.0822 189.096 27.6554C190.175 27.2242 190.97 26.6446 191.477 25.9169C191.985 25.1891 192.241 24.3805 192.241 23.4954C192.241 22.4262 191.936 21.5682 191.325 20.9168C190.714 20.2654 189.914 19.7532 188.926 19.3759C187.937 18.9985 186.841 18.6661 185.646 18.3785C184.447 18.091 183.252 17.7855 182.052 17.4621C180.853 17.1386 179.757 16.7029 178.755 16.1548C177.753 15.6067 176.944 14.8834 176.333 13.9894C175.722 13.0909 175.417 11.9139 175.417 10.4539C175.417 9.10163 175.776 7.85722 176.491 6.72512C177.205 5.59303 178.306 4.68106 179.788 3.99371C181.271 3.30637 183.171 2.96045 185.489 2.96045C187.025 2.96045 188.548 3.17609 190.058 3.60287C191.567 4.03414 192.87 4.62266 193.962 5.37739L192.987 7.68202C191.814 6.90033 190.57 6.32979 189.258 5.9659C187.942 5.60201 186.675 5.41782 185.453 5.41782C183.813 5.41782 182.461 5.63795 181.392 6.0827C180.323 6.52746 179.537 7.11597 179.029 7.85722C178.521 8.59848 178.265 9.43856 178.265 10.3775C178.265 11.4467 178.571 12.3047 179.182 12.9562C179.793 13.6076 180.601 14.1152 181.603 14.4791C182.605 14.843 183.706 15.1709 184.9 15.454C186.095 15.7415 187.286 16.0515 188.472 16.3929C189.658 16.7298 190.75 17.1656 191.751 17.7002C192.753 18.2348 193.562 18.9446 194.173 19.8296C194.784 20.7146 195.089 21.8737 195.089 23.3068C195.089 24.6365 194.725 25.863 193.998 26.9951C193.27 28.1272 192.156 29.0391 190.66 29.7265C189.159 30.4093 187.237 30.7552 184.896 30.7552Z" fill="white"/>
<path d="M35.7466 45.4231L38.7386 38.8192H39.673L42.6739 45.4231H41.6811L39.0126 39.3448H39.39L36.7214 45.4231H35.7466ZM37.0179 43.7744L37.274 43.0197H40.9938L41.2678 43.7744H37.0179Z" fill="#8EAADA"/>
<path d="M43.5181 47.2561V40.4231H44.3851V41.7708L44.3267 42.9299L44.421 44.0889V47.2516H43.5181V47.2561ZM46.1731 45.4816C45.7598 45.4816 45.3779 45.3873 45.0365 45.1941C44.6951 45.0009 44.4211 44.7179 44.2144 44.3405C44.0077 43.9632 43.9089 43.4914 43.9089 42.9254C43.9089 42.3593 44.0077 41.8876 44.2054 41.5103C44.4031 41.1329 44.6726 40.8499 45.0185 40.6612C45.36 40.4725 45.7463 40.3782 46.1731 40.3782C46.6628 40.3782 47.0986 40.486 47.4759 40.6971C47.8533 40.9128 48.1498 41.2093 48.3744 41.5911C48.5945 41.973 48.7068 42.4177 48.7068 42.9254C48.7068 43.433 48.5945 43.8823 48.3744 44.2641C48.1543 44.646 47.8533 44.947 47.4759 45.1626C47.0941 45.3738 46.6628 45.4816 46.1731 45.4816ZM46.0967 44.6864C46.4157 44.6864 46.7077 44.6146 46.9593 44.4708C47.2154 44.327 47.4175 44.1204 47.5613 43.8508C47.7095 43.5813 47.7814 43.2713 47.7814 42.9209C47.7814 42.5615 47.7095 42.2515 47.5613 41.991C47.413 41.7304 47.2109 41.5282 46.9593 41.3845C46.7032 41.2407 46.4157 41.1688 46.0967 41.1688C45.7823 41.1688 45.4992 41.2407 45.2432 41.3845C44.9871 41.5282 44.7849 41.7304 44.6412 41.991C44.4929 42.2515 44.421 42.5615 44.421 42.9209C44.421 43.2713 44.4929 43.5813 44.6412 43.8508C44.7894 44.1159 44.9916 44.3225 45.2432 44.4708C45.4947 44.6146 45.7823 44.6864 46.0967 44.6864Z" fill="#8EAADA"/>
<path d="M49.9561 47.2561V40.4231H50.8231V41.7708L50.7647 42.9299L50.859 44.0889V47.2516H49.9561V47.2561ZM52.6066 45.4816C52.1933 45.4816 51.8114 45.3873 51.47 45.1941C51.1286 45.0009 50.8545 44.7179 50.6479 44.3405C50.4412 43.9632 50.3424 43.4914 50.3424 42.9254C50.3424 42.3593 50.4412 41.8876 50.6389 41.5103C50.8366 41.1329 51.1061 40.8499 51.452 40.6612C51.7935 40.4725 52.1798 40.3782 52.6066 40.3782C53.0963 40.3782 53.532 40.486 53.9094 40.6971C54.2868 40.9128 54.5833 41.2093 54.8079 41.5911C55.028 41.973 55.1403 42.4177 55.1403 42.9254C55.1403 43.433 55.028 43.8823 54.8079 44.2641C54.5878 44.646 54.2868 44.947 53.9094 45.1626C53.532 45.3738 53.0963 45.4816 52.6066 45.4816ZM52.5302 44.6864C52.8492 44.6864 53.1412 44.6146 53.3928 44.4708C53.6488 44.327 53.851 44.1204 53.9948 43.8508C54.143 43.5813 54.2149 43.2713 54.2149 42.9209C54.2149 42.5615 54.143 42.2515 53.9948 41.991C53.8465 41.7304 53.6444 41.5282 53.3928 41.3845C53.1367 41.2407 52.8492 41.1688 52.5302 41.1688C52.2158 41.1688 51.9327 41.2407 51.6767 41.3845C51.4206 41.5282 51.2184 41.7304 51.0747 41.991C50.9264 42.2515 50.8545 42.5615 50.8545 42.9209C50.8545 43.2713 50.9264 43.5813 51.0747 43.8508C51.2229 44.1159 51.4251 44.3225 51.6767 44.4708C51.9327 44.6146 52.2158 44.6864 52.5302 44.6864Z" fill="#8EAADA"/>
<path d="M56.3892 45.4232V38.4194H57.2966V45.4232H56.3892Z" fill="#8EAADA"/>
<path d="M59.4753 39.4617C59.3001 39.4617 59.1519 39.4033 59.0351 39.291C58.9183 39.1786 58.8599 39.0394 58.8599 38.8776C58.8599 38.7069 58.9183 38.5677 59.0351 38.4509C59.1519 38.3386 59.2956 38.2802 59.4753 38.2802C59.6505 38.2802 59.7988 38.3341 59.9156 38.4464C60.0324 38.5587 60.0908 38.6935 60.0908 38.8552C60.0908 39.0259 60.0324 39.1697 59.9201 39.2865C59.8078 39.4033 59.6595 39.4617 59.4753 39.4617ZM59.0216 45.4231V40.4231H59.9291V45.4231H59.0216Z" fill="#8EAADA"/>
<path d="M63.8379 45.4816C63.3303 45.4816 62.8721 45.3693 62.4722 45.1491C62.0724 44.929 61.7579 44.628 61.5333 44.2417C61.3087 43.8598 61.1919 43.4195 61.1919 42.9209C61.1919 42.4222 61.3042 41.982 61.5333 41.6001C61.7579 41.2182 62.0724 40.9172 62.4722 40.6971C62.8721 40.4815 63.3258 40.3737 63.8379 40.3737C64.2917 40.3737 64.696 40.4635 65.0509 40.6432C65.4058 40.8229 65.6798 41.088 65.8775 41.4384L65.1902 41.8831C65.0284 41.636 64.8263 41.4563 64.5927 41.3395C64.3546 41.2227 64.103 41.1643 63.8335 41.1643C63.5055 41.1643 63.2135 41.2362 62.9574 41.38C62.7014 41.5237 62.4947 41.7259 62.342 41.9864C62.1892 42.247 62.1173 42.557 62.1173 42.9164C62.1173 43.2758 62.1937 43.5858 62.342 43.8508C62.4947 44.1159 62.6969 44.318 62.9574 44.4663C63.218 44.6145 63.51 44.6819 63.8335 44.6819C64.103 44.6819 64.3591 44.6235 64.5927 44.5067C64.8308 44.3899 65.0284 44.2102 65.1902 43.9631L65.8775 44.3989C65.6843 44.7448 65.4058 45.0099 65.0509 45.1985C64.696 45.3872 64.2872 45.4816 63.8379 45.4816Z" fill="#8EAADA"/>
<path d="M68.5051 45.4816C68.1322 45.4816 67.8088 45.4187 67.5302 45.2929C67.2517 45.1672 67.0361 44.9919 66.8833 44.7673C66.7306 44.5427 66.6587 44.2911 66.6587 44.0081C66.6587 43.7386 66.7216 43.4915 66.8519 43.2713C66.9822 43.0512 67.1933 42.876 67.4853 42.7412C67.7773 42.6109 68.1726 42.5436 68.6713 42.5436H70.2571V43.195H68.7117C68.258 43.195 67.9525 43.2713 67.7953 43.4196C67.638 43.5723 67.5572 43.752 67.5572 43.9677C67.5572 44.2148 67.656 44.4079 67.8492 44.5562C68.0424 44.7044 68.3164 44.7763 68.6623 44.7763C69.0038 44.7763 69.3003 44.6999 69.5563 44.5517C69.8124 44.4034 69.9966 44.1788 70.1089 43.8913L70.2886 44.5157C70.1673 44.8122 69.9561 45.0459 69.6552 45.2211C69.3452 45.3963 68.9678 45.4816 68.5051 45.4816ZM70.1493 45.4232V44.3675L70.0999 44.1698V42.3684C70.0999 41.9865 69.9876 41.6855 69.763 41.4788C69.5384 41.2677 69.2059 41.1644 68.7567 41.1644C68.4602 41.1644 68.1726 41.2138 67.8896 41.3126C67.6066 41.4115 67.3685 41.5417 67.1708 41.7035L66.7935 41.0251C67.0495 40.8185 67.3595 40.6567 67.7234 40.5489C68.0828 40.4366 68.4647 40.3827 68.86 40.3827C69.5473 40.3827 70.073 40.5489 70.4458 40.8814C70.8187 41.2138 71.0029 41.7259 71.0029 42.4088V45.4277H70.1493V45.4232Z" fill="#8EAADA"/>
<path d="M75.3566 40.3782C75.7654 40.3782 76.1248 40.4545 76.4393 40.6118C76.7493 40.769 76.9963 41.0071 77.1715 41.3306C77.3468 41.6495 77.4366 42.0584 77.4366 42.548V45.4277H76.5291V42.6514C76.5291 42.1662 76.4123 41.8023 76.1742 41.5552C75.9361 41.3081 75.6082 41.1868 75.1769 41.1868C74.8579 41.1868 74.5749 41.2497 74.3368 41.3755C74.0987 41.5013 73.9145 41.6855 73.7842 41.9326C73.654 42.1796 73.5911 42.4851 73.5911 42.849V45.4232H72.6836V40.4231H73.5506V41.7708L73.4114 41.4114C73.5731 41.0835 73.8247 40.8319 74.1661 40.6477C74.5075 40.468 74.9074 40.3782 75.3566 40.3782Z" fill="#8EAADA"/>
<path d="M78.3975 41.1688V40.4231H81.5871V41.1688H78.3975ZM80.8324 45.4816C80.3292 45.4816 79.9384 45.3468 79.6643 45.0773C79.3858 44.8077 79.251 44.4214 79.251 43.9182V39.3314H80.1585V43.8778C80.1585 44.1473 80.2259 44.354 80.3607 44.5022C80.4954 44.646 80.6886 44.7179 80.9402 44.7179C81.2232 44.7179 81.4613 44.6415 81.65 44.4798L81.933 45.1312C81.7938 45.2525 81.6275 45.3378 81.4388 45.3962C81.2367 45.4546 81.039 45.4816 80.8324 45.4816Z" fill="#8EAADA"/>
<path d="M87.0005 45.4231V39.6368H84.7363V38.8147H90.1991V39.6368H87.935V45.4231H87.0005Z" fill="#8EAADA"/>
<path d="M90.9766 45.4232V40.4231H91.8436V41.7843L91.7582 41.4429C91.8975 41.097 92.1311 40.8319 92.4546 40.6522C92.7825 40.468 93.1824 40.3782 93.663 40.3782V41.2542C93.6271 41.2497 93.5912 41.2452 93.5552 41.2452C93.5193 41.2452 93.4878 41.2452 93.4564 41.2452C92.9712 41.2452 92.5893 41.389 92.3063 41.681C92.0233 41.9685 91.8795 42.3908 91.8795 42.9344V45.4232H90.9766Z" fill="#8EAADA"/>
<path d="M95.8733 45.4816C95.5004 45.4816 95.1769 45.4187 94.8984 45.2929C94.6199 45.1672 94.4042 44.9919 94.2515 44.7673C94.0987 44.5427 94.0269 44.2911 94.0269 44.0081C94.0269 43.7386 94.0898 43.4915 94.22 43.2713C94.3503 43.0512 94.5615 42.876 94.8535 42.7412C95.1455 42.6109 95.5408 42.5436 96.0395 42.5436H97.6253V43.195H96.0799C95.6262 43.195 95.3207 43.2713 95.1634 43.4196C95.0062 43.5723 94.9253 43.752 94.9253 43.9677C94.9253 44.2148 95.0242 44.4079 95.2174 44.5562C95.4105 44.7044 95.6846 44.7763 96.0305 44.7763C96.3719 44.7763 96.6684 44.6999 96.9245 44.5517C97.1806 44.4034 97.3648 44.1788 97.4771 43.8913L97.6568 44.5157C97.5355 44.8122 97.3243 45.0459 97.0233 45.2211C96.7133 45.3963 96.3315 45.4816 95.8733 45.4816ZM97.513 45.4232V44.3675L97.4636 44.1698V42.3684C97.4636 41.9865 97.3513 41.6855 97.1267 41.4788C96.902 41.2677 96.5696 41.1644 96.1203 41.1644C95.8238 41.1644 95.5363 41.2138 95.2533 41.3126C94.9703 41.4115 94.7322 41.5417 94.5345 41.7035L94.1571 41.0251C94.4132 40.8185 94.7232 40.6567 95.0871 40.5489C95.4465 40.4366 95.8283 40.3827 96.2237 40.3827C96.911 40.3827 97.4366 40.5489 97.8095 40.8814C98.1824 41.2138 98.3666 41.7259 98.3666 42.4088V45.4277H97.513V45.4232Z" fill="#8EAADA"/>
<path d="M102.23 45.4816C101.722 45.4816 101.264 45.3693 100.864 45.1491C100.465 44.929 100.15 44.628 99.9254 44.2417C99.7008 43.8598 99.584 43.4195 99.584 42.9209C99.584 42.4222 99.6963 41.982 99.9254 41.6001C100.15 41.2182 100.465 40.9172 100.864 40.6971C101.264 40.4815 101.718 40.3737 102.23 40.3737C102.684 40.3737 103.088 40.4635 103.443 40.6432C103.798 40.8229 104.072 41.088 104.27 41.4384L103.582 41.8831C103.421 41.636 103.218 41.4563 102.985 41.3395C102.747 41.2227 102.495 41.1643 102.226 41.1643C101.898 41.1643 101.606 41.2362 101.35 41.38C101.093 41.5237 100.887 41.7259 100.734 41.9864C100.581 42.247 100.509 42.557 100.509 42.9164C100.509 43.2758 100.586 43.5858 100.734 43.8508C100.887 44.1159 101.089 44.318 101.35 44.4663C101.61 44.6145 101.902 44.6819 102.226 44.6819C102.495 44.6819 102.751 44.6235 102.985 44.5067C103.223 44.3899 103.421 44.2102 103.582 43.9631L104.27 44.3989C104.076 44.7448 103.798 45.0099 103.443 45.1985C103.088 45.3872 102.684 45.4816 102.23 45.4816Z" fill="#8EAADA"/>
<path d="M105.375 45.4232V38.4194H106.282V45.4232H105.375ZM106.112 44.2147L106.13 43.0556L109.009 40.4231H110.106L107.895 42.5929L107.406 43.0062L106.112 44.2147ZM109.198 45.4232L107.235 42.9883L107.819 42.2605L110.308 45.4232H109.198Z" fill="#8EAADA"/>
<path d="M111.642 39.4617C111.467 39.4617 111.318 39.4033 111.202 39.291C111.085 39.1786 111.026 39.0394 111.026 38.8776C111.026 38.7069 111.085 38.5677 111.202 38.4509C111.318 38.3386 111.462 38.2802 111.642 38.2802C111.817 38.2802 111.965 38.3341 112.082 38.4464C112.199 38.5587 112.257 38.6935 112.257 38.8552C112.257 39.0259 112.199 39.1697 112.087 39.2865C111.97 39.4033 111.822 39.4617 111.642 39.4617ZM111.188 45.4231V40.4231H112.096V45.4231H111.188Z" fill="#8EAADA"/>
<path d="M116.489 40.3782C116.898 40.3782 117.257 40.4545 117.572 40.6118C117.882 40.769 118.129 41.0071 118.304 41.3306C118.479 41.6495 118.569 42.0584 118.569 42.548V45.4277H117.661V42.6514C117.661 42.1662 117.545 41.8023 117.307 41.5552C117.068 41.3081 116.741 41.1868 116.309 41.1868C115.99 41.1868 115.707 41.2497 115.469 41.3755C115.231 41.5013 115.047 41.6855 114.917 41.9326C114.786 42.1796 114.723 42.4851 114.723 42.849V45.4232H113.816V40.4231H114.683V41.7708L114.544 41.4114C114.705 41.0835 114.957 40.8319 115.298 40.6477C115.64 40.468 116.04 40.3782 116.489 40.3782Z" fill="#8EAADA"/>
<path d="M122.32 45.2165C121.835 45.2165 121.404 45.1132 121.022 44.9111C120.64 44.7044 120.339 44.4214 120.114 44.0575C119.89 43.6936 119.777 43.2713 119.777 42.7951C119.777 42.3099 119.89 41.8876 120.114 41.5238C120.339 41.1644 120.64 40.8813 121.022 40.6792C121.404 40.477 121.835 40.3782 122.32 40.3782C122.747 40.3782 123.138 40.4635 123.488 40.6387C123.839 40.8139 124.122 41.079 124.333 41.4384C124.544 41.7978 124.647 42.2515 124.647 42.7951C124.647 43.3342 124.544 43.7879 124.333 44.1428C124.122 44.5022 123.839 44.7718 123.488 44.9515C123.138 45.1267 122.751 45.2165 122.32 45.2165ZM122.437 47.31C121.979 47.31 121.534 47.2471 121.103 47.1168C120.671 46.9866 120.321 46.8024 120.051 46.5643L120.487 45.8679C120.721 46.0701 121.008 46.2273 121.345 46.3442C121.687 46.461 122.042 46.5194 122.41 46.5194C123.003 46.5194 123.434 46.3801 123.713 46.106C123.991 45.8275 124.126 45.4097 124.126 44.8392V43.7835L124.22 42.7906L124.171 41.7888V40.4186H125.029V44.7403C125.029 45.6209 124.809 46.2678 124.369 46.6856C123.928 47.1034 123.286 47.31 122.437 47.31ZM122.423 44.4259C122.756 44.4259 123.052 44.3585 123.308 44.2192C123.564 44.08 123.771 43.8868 123.915 43.6442C124.059 43.4016 124.135 43.1141 124.135 42.7951C124.135 42.4762 124.059 42.1931 123.915 41.946C123.771 41.699 123.564 41.5103 123.308 41.3755C123.052 41.2407 122.756 41.1733 122.423 41.1733C122.091 41.1733 121.794 41.2407 121.529 41.3755C121.264 41.5103 121.062 41.699 120.914 41.946C120.766 42.1931 120.694 42.4762 120.694 42.7951C120.694 43.1141 120.766 43.3971 120.914 43.6442C121.062 43.8913 121.264 44.08 121.529 44.2192C121.794 44.3585 122.091 44.4259 122.423 44.4259Z" fill="#8EAADA"/>
<path d="M131.354 45.4996C130.851 45.4996 130.371 45.4232 129.912 45.2705C129.454 45.1177 129.09 44.9156 128.825 44.673L129.176 43.9362C129.427 44.1563 129.746 44.3405 130.137 44.4843C130.528 44.6281 130.932 44.6999 131.354 44.6999C131.736 44.6999 132.051 44.655 132.289 44.5697C132.527 44.4798 132.702 44.3585 132.819 44.2058C132.931 44.053 132.99 43.8778 132.99 43.6801C132.99 43.4555 132.918 43.2713 132.77 43.1321C132.621 42.9928 132.428 42.8805 132.195 42.7951C131.956 42.7098 131.7 42.6379 131.417 42.575C131.134 42.5121 130.851 42.4402 130.564 42.3549C130.276 42.2695 130.016 42.1617 129.782 42.0314C129.544 41.9011 129.355 41.7214 129.212 41.4968C129.068 41.2722 128.996 40.9847 128.996 40.6343C128.996 40.2928 129.086 39.9829 129.265 39.6953C129.445 39.4078 129.719 39.1787 130.097 39.008C130.469 38.8373 130.946 38.7474 131.525 38.7474C131.907 38.7474 132.289 38.7969 132.666 38.9002C133.044 38.999 133.372 39.1473 133.646 39.3359L133.336 40.0907C133.053 39.902 132.752 39.7672 132.437 39.6819C132.123 39.5965 131.817 39.5561 131.521 39.5561C131.148 39.5561 130.842 39.601 130.604 39.6998C130.366 39.7942 130.191 39.92 130.079 40.0772C129.966 40.2344 129.912 40.4096 129.912 40.6073C129.912 40.8409 129.989 41.0251 130.133 41.1644C130.281 41.3036 130.474 41.4115 130.708 41.4968C130.946 41.5777 131.202 41.6541 131.485 41.7169C131.768 41.7843 132.051 41.8562 132.338 41.9371C132.626 42.0179 132.886 42.1258 133.12 42.256C133.358 42.3863 133.547 42.566 133.691 42.7861C133.834 43.0063 133.906 43.2893 133.906 43.6352C133.906 43.9677 133.816 44.2776 133.632 44.5652C133.448 44.8527 133.169 45.0818 132.788 45.2525C132.41 45.4142 131.929 45.4996 131.354 45.4996Z" fill="#8EAADA"/>
<path d="M135.276 47.31C135.038 47.31 134.805 47.2696 134.58 47.1932C134.355 47.1124 134.158 47 133.996 46.8473L134.382 46.1689C134.508 46.2902 134.647 46.3801 134.796 46.443C134.948 46.5059 135.106 46.5373 135.276 46.5373C135.497 46.5373 135.681 46.4789 135.825 46.3666C135.968 46.2543 136.103 46.0521 136.229 45.7646L136.539 45.0773L136.633 44.965L138.596 40.4276H139.486L137.06 45.9308C136.916 46.2812 136.754 46.5598 136.575 46.7619C136.395 46.9641 136.197 47.1079 135.986 47.1932C135.771 47.2696 135.537 47.31 135.276 47.31ZM136.467 45.5849L134.185 40.4231H135.128L137.073 44.8751L136.467 45.5849Z" fill="#8EAADA"/>
<path d="M141.705 45.4815C141.292 45.4815 140.897 45.4231 140.519 45.3108C140.142 45.1985 139.85 45.0592 139.639 44.8975L140.016 44.1787C140.232 44.3225 140.492 44.4438 140.807 44.5471C141.121 44.6459 141.44 44.6998 141.768 44.6998C142.19 44.6998 142.491 44.6414 142.68 44.5201C142.864 44.3988 142.959 44.2326 142.959 44.0215C142.959 43.8642 142.9 43.7429 142.788 43.6531C142.676 43.5632 142.527 43.5004 142.339 43.4554C142.154 43.4105 141.948 43.3701 141.719 43.3386C141.494 43.3027 141.265 43.2623 141.04 43.2083C140.816 43.1544 140.605 43.0781 140.416 42.9837C140.227 42.8849 140.074 42.7501 139.962 42.5794C139.85 42.4042 139.791 42.1751 139.791 41.8876C139.791 41.5866 139.877 41.3215 140.047 41.0969C140.218 40.8723 140.456 40.6971 140.771 40.5713C141.081 40.45 141.454 40.3871 141.88 40.3871C142.208 40.3871 142.541 40.4275 142.878 40.5039C143.215 40.5803 143.489 40.6926 143.704 40.8408L143.318 41.5596C143.093 41.4069 142.855 41.3035 142.608 41.2496C142.361 41.1912 142.119 41.1643 141.871 41.1643C141.476 41.1643 141.18 41.2272 140.986 41.3575C140.793 41.4877 140.694 41.654 140.694 41.8516C140.694 42.0223 140.753 42.1526 140.87 42.2425C140.986 42.3323 141.135 42.4042 141.323 42.4536C141.508 42.503 141.714 42.548 141.943 42.5794C142.168 42.6153 142.397 42.6558 142.622 42.7097C142.846 42.7636 143.053 42.8355 143.242 42.9298C143.43 43.0242 143.579 43.1544 143.695 43.3251C143.812 43.4959 143.871 43.7205 143.871 44.0035C143.871 44.3045 143.781 44.5651 143.606 44.7852C143.43 45.0053 143.179 45.176 142.86 45.3018C142.536 45.4186 142.15 45.4815 141.705 45.4815Z" fill="#8EAADA"/>
<path d="M144.279 41.1688V40.4231H147.469V41.1688H144.279ZM146.714 45.4816C146.211 45.4816 145.82 45.3468 145.546 45.0773C145.268 44.8077 145.133 44.4214 145.133 43.9182V39.3314H146.04V43.8778C146.04 44.1473 146.108 44.354 146.242 44.5022C146.377 44.646 146.57 44.7179 146.822 44.7179C147.105 44.7179 147.343 44.6415 147.532 44.4798L147.815 45.1312C147.676 45.2525 147.509 45.3378 147.321 45.3962C147.123 45.4546 146.921 45.4816 146.714 45.4816Z" fill="#8EAADA"/>
<path d="M150.96 45.4816C150.425 45.4816 149.954 45.3693 149.549 45.1491C149.145 44.929 148.831 44.628 148.606 44.2417C148.381 43.8598 148.269 43.4195 148.269 42.9209C148.269 42.4222 148.377 41.982 148.592 41.6001C148.808 41.2182 149.109 40.9172 149.491 40.6971C149.873 40.4815 150.3 40.3737 150.78 40.3737C151.266 40.3737 151.692 40.4815 152.065 40.6926C152.438 40.9083 152.726 41.2048 152.937 41.5956C153.148 41.982 153.251 42.4357 153.251 42.9478C153.251 42.9838 153.251 43.0287 153.247 43.0781C153.242 43.1275 153.238 43.1769 153.233 43.2174H148.979V42.566H152.761L152.393 42.7906C152.398 42.4716 152.335 42.1841 152.195 41.9325C152.056 41.681 151.867 41.4833 151.625 41.344C151.382 41.2048 151.099 41.1329 150.78 41.1329C150.466 41.1329 150.187 41.2048 149.94 41.344C149.693 41.4878 149.504 41.6855 149.365 41.937C149.226 42.1931 149.159 42.4806 149.159 42.8086V42.9613C149.159 43.2937 149.235 43.5903 149.388 43.8508C149.54 44.1114 149.756 44.3135 150.035 44.4618C150.313 44.6055 150.628 44.6774 150.987 44.6774C151.283 44.6774 151.553 44.628 151.796 44.5247C152.038 44.4258 152.249 44.2731 152.434 44.0709L152.932 44.655C152.708 44.92 152.425 45.1222 152.088 45.2569C151.751 45.4097 151.378 45.4816 150.96 45.4816Z" fill="#8EAADA"/>
<path d="M160.767 40.3781C161.171 40.3781 161.526 40.4545 161.832 40.6117C162.142 40.769 162.38 41.0071 162.555 41.3305C162.726 41.6495 162.815 42.0583 162.815 42.548V45.4276H161.908V42.6513C161.908 42.1661 161.796 41.8022 161.567 41.5551C161.342 41.3081 161.023 41.1868 160.614 41.1868C160.313 41.1868 160.048 41.2497 159.823 41.3754C159.599 41.5012 159.424 41.6854 159.298 41.9325C159.177 42.1796 159.114 42.4851 159.114 42.849V45.4231H158.206V42.6468C158.206 42.1616 158.094 41.7977 157.869 41.5507C157.645 41.3036 157.326 41.1823 156.912 41.1823C156.616 41.1823 156.355 41.2452 156.131 41.371C155.906 41.4967 155.726 41.6809 155.601 41.928C155.475 42.1751 155.412 42.4806 155.412 42.8445V45.4187H154.504V40.4186H155.371V41.7483L155.232 41.4069C155.389 41.0789 155.632 40.8274 155.96 40.6432C156.288 40.459 156.67 40.3691 157.101 40.3691C157.577 40.3691 157.991 40.4859 158.336 40.724C158.682 40.9621 158.907 41.317 159.015 41.7932L158.646 41.6405C158.799 41.2586 159.06 40.9487 159.437 40.7151C159.823 40.4904 160.264 40.3781 160.767 40.3781Z" fill="#8EAADA"/>
</svg>
